<svg xmlns="http://www.w3.org/2000/svg" xmlns:xlink="http://www.w3.org/1999/xlink" width="182" height="161" viewBox="0 0 182 161">
    <defs>
        <path id="5etkeyaa5a" d="M14.587.526L1.593 5.11C.495 5.5 0 6.042.025 6.621 0 6.616 0 8.704 0 8.704c.004.7.863 1.453 2.435 2.064l44.401 17.25c2.845 1.103 7.102 1.307 9.51.454L69.34 23.89c2.055-.85 1.622-1.99 1.622-3.202l-.08-.054c.307-.784-.476-1.692-2.306-2.402l-11.16-4.329c-1.902-.736-3.075-2.102-3.075-3.58V8.737L33.624.646v.457c0 1.589-2.553 2.584-4.596 1.791L24.097.981C22.437.338 20.295 0 18.322 0c-1.41 0-2.732.171-3.735.526"/>
        <path id="c61hyo1f5d" d="M18.582 0L4.84 1.638C2.03 2.611 0 4.502 0 6.858v59.216c0 4.22 3.47 8.122 9.107 10.244l130.285 48.865c4.957 1.866 9.16.223 14.265-1.814 2.53-1.013 4.324-2.804 4.343-5.004V58.972c.032-4.256-3.464-8.196-9.162-10.324L18.582 0z"/>
        <path id="0c3mgikfng" d="M0 1.659V31.01c0 1.48 1.198 2.846 3.144 3.586l53.083 20.179c1.675.637 3.773-.16 3.773-1.435V23.976c0-1.479-1.2-2.847-3.147-3.586L28.991 9.805l-15.05-5.718L4.676.567 3.773.224C3.368.07 2.938 0 2.52 0 1.205 0 0 .691 0 1.659"/>
        <path id="gopmdumswj" d="M0 1.79V33.4c0 1.6 1.272 3.068 3.316 3.865L59.336 59 60 21.964 3.99.242C3.563.075 3.11 0 2.668 0 1.278 0 0 .748 0 1.79"/>
        <path id="mjw80go2ql" d="M0 .722v12.786c0 .645.5 1.24 1.311 1.562L16.233 21v-4.82c0-.557.874-.904 1.573-.626L25 18.411v-7.967c0-.646-.5-1.24-1.311-1.563L1.573.098C1.404.031 1.225 0 1.05 0 .503 0 0 .301 0 .722"/>
        <path id="47alx98d2o" d="M8.767 4.824c0 .555-.874.901-1.573.623L0 2.59v7.963c0 .644.5 1.24 1.311 1.562l22.116 8.788c.699.278 1.573-.07 1.573-.624V7.488c0-.645-.5-1.24-1.311-1.562L8.767 0v4.824z"/>
        <path id="bylxk52vqr" d="M0 43.329L20 51 20 7.671 0 0z"/>
        <path id="2p21j1laiu" d="M0 36.217L20 44 20 7.783 0 0z"/>
        <path id="fr4gmj4mvx" d="M0 24.437L20 32 20 7.563 0 0z"/>
        <linearGradient id="3pk10fco6b" x1="-.001%" x2="100%" y1="50%" y2="50%">
            <stop offset="0%" stop-color="#EDF2FB"/>
            <stop offset="100%" stop-color="#CFDBF7"/>
        </linearGradient>
        <linearGradient id="fdhih415de" x1="0%" x2="100%" y1="50%" y2="50%">
            <stop offset="0%" stop-color="#EDF2FB"/>
            <stop offset="100%" stop-color="#CFDBF7"/>
        </linearGradient>
        <linearGradient id="mgnro8e7bh" x1="0%" x2="100.001%" y1="50%" y2="50%">
            <stop offset="0%" stop-color="#EDF2FB"/>
            <stop offset="100%" stop-color="#CFDBF7"/>
        </linearGradient>
        <linearGradient id="opw0d347km" x1=".003%" x2="99.998%" y1="50.001%" y2="50.001%">
            <stop offset="0%" stop-color="#EDF2FB"/>
            <stop offset="100%" stop-color="#CFDBF7"/>
        </linearGradient>
        <linearGradient id="jri0f42x9p" x1=".001%" x2="99.996%" y1="50%" y2="50%">
            <stop offset="0%" stop-color="#EDF2FB"/>
            <stop offset="100%" stop-color="#CFDBF7"/>
        </linearGradient>
        <linearGradient id="4u4kqjvyis" x1="-.003%" x2="99.996%" y1="50%" y2="50%">
            <stop offset="0%" stop-color="#CFDBF7"/>
            <stop offset="100%" stop-color="#A1B6E8"/>
        </linearGradient>
        <linearGradient id="oaqkzjqqsv" x1=".003%" x2="100.002%" y1="50%" y2="50%">
            <stop offset="0%" stop-color="#CFDBF7"/>
            <stop offset="100%" stop-color="#A1B6E8"/>
        </linearGradient>
        <linearGradient id="b5ylq8n2dy" x1="-.001%" x2="99.998%" y1="50%" y2="50%">
            <stop offset="0%" stop-color="#CFDBF7"/>
            <stop offset="100%" stop-color="#A1B6E8"/>
        </linearGradient>
    </defs>
    <g fill="none" fill-rule="evenodd">
        <g>
            <g>
                <g>
                    <g>
                        <path fill="#A2B7EB" d="M99 98.214L78 91 78 106.411 99 115z" transform="translate(-289 -2004) translate(115 1859) translate(41 113) translate(133 32)"/>
                        <g transform="translate(-289 -2004) translate(115 1859) translate(41 113) translate(133 32) translate(45 102)">
                            <mask id="4gjywy6hlc" fill="#fff">
                                <use xlink:href="#5etkeyaa5a"/>
                            </mask>
                            <path fill="url(#3pk10fco6b)" d="M14.587.526L1.593 5.11C.495 5.5 0 6.042.025 6.621 0 6.616 0 8.704 0 8.704c.004.7.863 1.453 2.435 2.064l44.401 17.25c2.845 1.103 7.102 1.307 9.51.454L69.34 23.89c2.055-.85 1.622-1.99 1.622-3.202l-.08-.054c.307-.784-.476-1.692-2.306-2.402l-11.16-4.329c-1.902-.736-3.075-2.102-3.075-3.58V8.737L33.624.646v.457c0 1.589-2.553 2.584-4.596 1.791L24.097.981C22.437.338 20.295 0 18.322 0c-1.41 0-2.732.171-3.735.526" mask="url(#4gjywy6hlc)"/>
                        </g>
                        <g transform="translate(-289 -2004) translate(115 1859) translate(41 113) translate(133 32) translate(12)">
                            <mask id="pj2t5j6t2f" fill="#fff">
                                <use xlink:href="#c61hyo1f5d"/>
                            </mask>
                            <path fill="url(#fdhih415de)" d="M18.582 0L4.84 1.638C2.03 2.611 0 4.502 0 6.858v59.216c0 4.22 3.47 8.122 9.107 10.244l130.285 48.865c4.957 1.866 9.16.223 14.265-1.814 2.53-1.013 4.324-2.804 4.343-5.004V58.972c.032-4.256-3.464-8.196-9.162-10.324L18.582 0z" mask="url(#pj2t5j6t2f)"/>
                        </g>
                        <g>
                            <path fill="#5A43DB" d="M2.509.117L132.488 48.55c6.778 2.373 9.548 5.48 9.548 10.727v59.134c-.003.545-.11 1.078-.315 1.589 1.478-.875 2.266-2.03 2.279-3.312V57.556c.026-3.752-3.082-7.247-8.11-9.124L5.904 0" transform="translate(-289 -2004) translate(115 1859) translate(41 113) translate(133 32) translate(24 1)"/>
                            <path fill="#F7F9FF" d="M0 8.313L0 65.593 129.409 114.103 129.409 56.619z" transform="translate(-289 -2004) translate(115 1859) translate(41 113) translate(133 32) translate(24 1)"/>
                            <path fill="#0BC0CF" d="M101.748 54.81v-.175c0-.538-.445-1.035-1.166-1.304L65.207 40.194c-.623-.232-1.4.057-1.4.521v.178c0 .539.445 1.036 1.167 1.304L100.35 55.33c.621.232 1.399-.058 1.399-.52" transform="translate(-289 -2004) translate(115 1859) translate(41 113) translate(133 32) translate(24 1)"/>
                            <path fill="#33E7D2" d="M37.834 70.374V70.2c0-.537-.445-1.034-1.166-1.304L5.428 57.04c-.622-.231-1.4.059-1.4.522v.178c0 .538.446 1.035 1.168 1.304l31.238 11.851c.622.232 1.4-.058 1.4-.52" transform="translate(-289 -2004) translate(115 1859) translate(41 113) translate(133 32) translate(24 1)"/>
                            <path fill="#FF70E9" d="M84.505 43.884v-.173c0-.538-.445-1.035-1.166-1.304L65.042 35.54c-.623-.232-1.4.057-1.4.521v.18c0 .537.445 1.034 1.166 1.302l18.297 6.863c.623.232 1.4-.057 1.4-.522" transform="translate(-289 -2004) translate(115 1859) translate(41 113) translate(133 32) translate(24 1)"/>
                            <path fill="#5A43DB" d="M4.77 61.789c-.077 0-.151.011-.223.037-.211.08-.332.281-.332.555 0 .569.507 1.186 1.179 1.437.277.102.526.124.7.058.206-.076.324-.27.324-.535 0-.567-.531-1.209-1.21-1.462-.124-.045-.282-.09-.438-.09m1.096 2.365c-.207 0-.429-.043-.659-.128-.778-.29-1.364-.997-1.364-1.645 0-.368.183-.638.517-.763.289-.108.654-.088 1.034.053.796.297 1.396 1.015 1.396 1.67 0 .357-.18.62-.51.743-.124.047-.264.07-.414.07M9.426 63.6c-.077 0-.153.011-.224.037-.21.08-.332.281-.332.555 0 .569.506 1.187 1.178 1.437.278.102.527.125.7.058.207-.076.325-.27.325-.534 0-.568-.532-1.21-1.211-1.463-.123-.045-.28-.09-.436-.09m1.094 2.365c-.205 0-.428-.043-.658-.128-.778-.29-1.365-.997-1.365-1.645 0-.367.185-.638.52-.763.287-.108.652-.088 1.031.053.797.297 1.397 1.015 1.397 1.67 0 .357-.181.62-.51.744-.124.046-.265.07-.415.07M14.08 65.303c-.075 0-.152.012-.222.037-.212.08-.333.281-.333.556 0 .568.507 1.186 1.179 1.436.278.102.525.125.7.058.205-.076.324-.27.324-.534 0-.568-.532-1.21-1.21-1.463-.123-.045-.282-.09-.438-.09m1.095 2.365c-.205 0-.429-.043-.657-.128-.779-.29-1.365-.997-1.365-1.644 0-.368.185-.64.519-.764.284-.107.652-.088 1.032.053.797.297 1.397 1.015 1.397 1.67 0 .357-.181.621-.51.744-.126.046-.266.07-.416.07" transform="translate(-289 -2004) translate(115 1859) translate(41 113) translate(133 32) translate(24 1)"/>
                        </g>
                        <g transform="translate(-289 -2004) translate(115 1859) translate(41 113) translate(133 32) translate(0 12)">
                            <mask id="djzw480yxi" fill="#fff">
                                <use xlink:href="#0c3mgikfng"/>
                            </mask>
                            <path fill="url(#mgnro8e7bh)" d="M0 1.659V31.01c0 1.48 1.198 2.846 3.144 3.586l53.083 20.179c1.675.637 3.773-.16 3.773-1.435V23.976c0-1.479-1.2-2.847-3.147-3.586L28.991 9.805l-15.05-5.718L4.676.567 3.773.224C3.368.07 2.938 0 2.52 0 1.205 0 0 .691 0 1.659" mask="url(#djzw480yxi)"/>
                        </g>
                        <g>
                            <path fill="#5A43DB" d="M4.425 12.613v10.294C2.492 22.162.959 21.565 0 21.193V10.91l4.425 1.703zM18.72 23.79v4.63c-1.502-.574-2.986-1.149-4.425-1.714v-4.62l4.425 1.704z" transform="translate(-289 -2004) translate(115 1859) translate(41 113) translate(133 32) translate(9 24)"/>
                            <path fill="#FF70E9" d="M26.146 17.712v13.571c-1.437-.553-2.923-1.127-4.424-1.702V16.01l4.424 1.703z" transform="translate(-289 -2004) translate(115 1859) translate(41 113) translate(133 32) translate(9 24)"/>
                            <path fill="#5A43DB" d="M33.557 25.217v8.919l-4.425-1.714v-8.909l4.425 1.704z" transform="translate(-289 -2004) translate(115 1859) translate(41 113) translate(133 32) translate(9 24)"/>
                            <path fill="#FF70E9" d="M41 18.755V37c-.783-.309-2.347-.906-4.44-1.703V17.052L41 18.755zM11.309 1.703v23.864c-1.582-.617-3.066-1.192-4.44-1.713V0l4.44 1.703z" transform="translate(-289 -2004) translate(115 1859) translate(41 113) translate(133 32) translate(9 24)"/>
                        </g>
                        <g transform="translate(-289 -2004) translate(115 1859) translate(41 113) translate(133 32) translate(122 26)">
                            <mask id="vj25cb46hk" fill="#fff">
                                <use xlink:href="#gopmdumswj"/>
                            </mask>
                            <path d="M0 1.79V33.4c0 1.6 1.272 3.068 3.316 3.865L59.336 59 60 21.964 3.99.242C3.563.075 3.11 0 2.668 0 1.278 0 0 .748 0 1.79" mask="url(#vj25cb46hk)"/>
                        </g>
                        <g>
                            <path fill="#4E90F9" d="M18.382 19.278c0 .455-.396.656-.946.443-.542-.214-.93-.721-.93-1.174 0-.4.3-.618.736-.525V0l.405.154v18.048c.435.25.735.683.735 1.076" transform="translate(-289 -2004) translate(115 1859) translate(41 113) translate(133 32) translate(122 30)"/>
                            <path fill="#FF70E9" d="M32.254 24.07c0 .455-.404.656-.955.443-.541-.213-.929-.722-.929-1.18 0-.399.299-.612.735-.52V5.41l.404.152v17.432c.438.251.745.683.745 1.076" transform="translate(-289 -2004) translate(115 1859) translate(41 113) translate(133 32) translate(122 30)"/>
                            <path fill="#4E90F9" d="M46.121 28.863c0 .453-.404.656-.954.442-.542-.213-.93-.722-.93-1.18 0-.399.3-.618.744-.52V10.82l.404.158V27.78c.43.257.736.689.736 1.083" transform="translate(-289 -2004) translate(115 1859) translate(41 113) translate(133 32) translate(122 30)"/>
                            <path fill="#5A43DB" d="M52.708 36.173c-1.152-1.213-2.243-2.36-3.659-2.932-1.992-.803-4.307-.612-6.346.525-.468.26-.987.666-1.536 1.096-1.364 1.066-2.901 2.282-4.672 2.124-1.548-.174-2.424-1.469-2.896-2.163-.692-1.025-1.31-2.232-1.891-3.69-.031-.072-.05-.111-.058-.15l-.083-.154c-1.317-3.037-2.554-5.892-5.323-6.066-1.198-.14-2.276.465-2.824.834-.498.27-.992.784-1.516 1.327-.937.973-2.002 2.076-3.387 2.076-1.798-.135-2.635-2.06-3.188-3.333-.1-.232-.19-.438-.272-.598-.09-.183-.182-.367-.272-.554-.706-1.443-1.436-2.936-2.881-4.063l-.044-.036c-1.189-.95-2.846-1.34-4.459-1.077-.53.085-1.047.238-1.55.385-.929.273-1.889.555-2.996.448-.296-.012-.658-.032-1.01-.104-.617-.09-1.211-.234-1.753-.427-.084-.031-.116-.102-.072-.16.045-.057.15-.078.235-.048.513.183 1.077.32 1.677.408.33.066.667.085.959.098 1.021.098 1.895-.158 2.821-.43.516-.152 1.048-.307 1.608-.398 1.738-.286 3.517.132 4.759 1.12.03.017.05.034.064.047 1.513 1.183 2.255 2.699 2.973 4.164.09.185.18.37.27.55.084.162.173.372.277.609.496 1.14 1.324 3.047 2.873 3.164 1.18 0 2.186-1.047 3.077-1.969.538-.56 1.047-1.088 1.576-1.373.581-.394 1.778-1.052 3.1-.892 2.993.187 4.261 3.116 5.604 6.218l.094.177c.015.05.028.079.041.111.591 1.48 1.203 2.675 1.888 3.688.443.655 1.27 1.875 2.629 2.03 1.567.143 3.051-1.025 4.358-2.047.56-.438 1.088-.85 1.58-1.124 2.16-1.203 4.618-1.4 6.745-.545 1.485.601 2.648 1.825 3.772 3.007" transform="translate(-289 -2004) translate(115 1859) translate(41 113) translate(133 32) translate(122 30)"/>
                        </g>
                        <g transform="translate(-289 -2004) translate(115 1859) translate(41 113) translate(133 32) translate(106 69)">
                            <mask id="fh7jrk01on" fill="#fff">
                                <use xlink:href="#mjw80go2ql"/>
                            </mask>
                            <path fill="url(#opw0d347km)" d="M0 .722v12.786c0 .645.5 1.24 1.311 1.562L16.233 21v-4.82c0-.557.874-.904 1.573-.626L25 18.411v-7.967c0-.646-.5-1.24-1.311-1.563L1.573.098C1.404.031 1.225 0 1.05 0 .503 0 0 .301 0 .722" mask="url(#fh7jrk01on)"/>
                        </g>
                        <g transform="translate(-289 -2004) translate(115 1859) translate(41 113) translate(133 32) translate(122 86)">
                            <mask id="h2weebze2q" fill="#fff">
                                <use xlink:href="#47alx98d2o"/>
                            </mask>
                            <path fill="url(#jri0f42x9p)" d="M8.767 4.824c0 .555-.874.901-1.573.623L0 2.59v7.963c0 .644.5 1.24 1.311 1.562l22.116 8.788c.699.278 1.573-.07 1.573-.624V7.488c0-.645-.5-1.24-1.311-1.562L8.767 0v4.824z" mask="url(#h2weebze2q)"/>
                        </g>
                        <g>
                            <path fill="#D0DBF8" d="M122 15.35v-4.342l-7.422-2.572c-.72-.25-1.621.063-1.621.563v4.34l7.422 2.573c.72.25 1.621-.062 1.621-.562" transform="translate(-289 -2004) translate(115 1859) translate(41 113) translate(133 32) translate(10 75)"/>
                            <path fill="#4E90F9" d="M20.561 14.257L41.121 7.128 20.561 0 0 7.128z" transform="translate(-289 -2004) translate(115 1859) translate(41 113) translate(133 32) translate(10 75)"/>
                        </g>
                        <g transform="translate(-289 -2004) translate(115 1859) translate(41 113) translate(133 32) translate(10 85)">
                            <mask id="hddn56yp4t" fill="#fff">
                                <use xlink:href="#bylxk52vqr"/>
                            </mask>
                            <path fill="url(#4u4kqjvyis)" d="M0 43.329L20 51 20 7.671 0 0z" mask="url(#hddn56yp4t)"/>
                        </g>
                        <g>
                            <path fill="#5A43DB" d="M0 7.671L0 51 20.047 43.329 20.047 0z" transform="translate(-289 -2004) translate(115 1859) translate(41 113) translate(133 32) translate(31 85)"/>
                            <path fill="#4E90F9" d="M32.953 28.034L53 20.363 32.953 12.692 12.906 20.363z" transform="translate(-289 -2004) translate(115 1859) translate(41 113) translate(133 32) translate(31 85)"/>
                        </g>
                        <g transform="translate(-289 -2004) translate(115 1859) translate(41 113) translate(133 32) translate(45 103)">
                            <mask id="wc75izueew" fill="#fff">
                                <use xlink:href="#2p21j1laiu"/>
                            </mask>
                            <path fill="url(#oaqkzjqqsv)" d="M0 36.217L20 44 20 7.783 0 0z" mask="url(#wc75izueew)"/>
                        </g>
                        <g>
                            <path fill="#5A43DB" d="M0 7.782L0 44 19.904 36.218 19.904 0z" transform="translate(-289 -2004) translate(115 1859) translate(41 113) translate(133 32) translate(66 103)"/>
                            <path fill="#4E90F9" d="M33.096 31.902L53 24.12 33.096 16.338 13.192 24.12z" transform="translate(-289 -2004) translate(115 1859) translate(41 113) translate(133 32) translate(66 103)"/>
                        </g>
                        <g transform="translate(-289 -2004) translate(115 1859) translate(41 113) translate(133 32) translate(77 129)">
                            <mask id="ybrw4jdqoz" fill="#fff">
                                <use xlink:href="#fr4gmj4mvx"/>
                            </mask>
                            <path fill="url(#b5ylq8n2dy)" d="M0 24.437L20 32 20 7.563 0 0z" mask="url(#ybrw4jdqoz)"/>
                        </g>
                        <g>
                            <path fill="#5A43DB" d="M2.369 122.754l19.72 7.51V87.328l-19.72-7.51v42.936zm19.903 7.841c-.032 0-.064-.006-.093-.017l-20.085-7.65c-.057-.021-.092-.06-.092-.104V79.608c0-.044.035-.083.092-.105.057-.022.127-.022.183 0l20.087 7.651c.056.021.091.062.091.104v43.215c0 .044-.035.084-.091.105-.03.011-.06.017-.092.017zM35.387 135.453l19.72 7.511v-35.326l-19.72-7.512v35.327zm19.903 7.842c-.032 0-.064-.005-.092-.016l-20.086-7.65c-.057-.023-.092-.062-.092-.106V99.918c0-.044.035-.084.092-.105.057-.023.125-.023.183 0l20.087 7.65c.057.021.091.061.091.105v35.606c0 .043-.034.084-.091.105-.028.01-.059.016-.092.016zM68.421 148.35v-24.72c0-.043.034-.084.09-.105.06-.021.128-.021.185 0l20.087 7.65c.056.022.09.062.09.106V156" transform="translate(-289 -2004) translate(115 1859) translate(41 113) translate(133 32) translate(6 5)"/>
                            <path fill="#5A43DB" d="M88.508 155.791L88.508 131.35 68.787 123.839 68.787 148.281M111.989 146.938L111.989 122.217 91.902 129.868 91.902 154.588" transform="translate(-289 -2004) translate(115 1859) translate(41 113) translate(133 32) translate(6 5)"/>
                            <path fill="#27145A" d="M85.004 74.36c-1.858 0-3.629-.712-4.418-1.906L61.034 42.898l8.358-3.396L89.418 69.91c1.063 1.61-.05 3.482-2.489 4.185-.628.18-1.282.266-1.925.266" transform="translate(-289 -2004) translate(115 1859) translate(41 113) translate(133 32) translate(6 5)"/>
                            <path fill="#5A43DB" d="M78.154 29.715c0-10.709-9.34-22.732-22.367-27.694C49.876-.23 44.694-.529 40.757.77l-9.325 3.482 7.81.098 7.321 1.69 8.3 4.689 6.612 6.38 5.256 7.512 1.44 9.554-1.985 5.726-4.856 5.165 9.163-3.433c4.785-1.743 7.661-5.976 7.661-11.917" transform="translate(-289 -2004) translate(115 1859) translate(41 113) translate(133 32) translate(6 5)"/>
                            <path fill="#3C2DA1" d="M35.008 12.26c0-3.426.998-6.235 2.774-8.322C27.66 5.671 26.396 9.775 26.396 15.736c0 10.362 9.526 22.107 21.688 26.74 2.925 1.114 5.647 1.68 8.088 1.68 1.792 0 6.013 0 7.89-2.094-1.926-.288-3.974-.826-6.125-1.646C44.634 35.35 35.008 22.968 35.008 12.26" transform="translate(-289 -2004) translate(115 1859) translate(41 113) translate(133 32) translate(6 5)"/>
                            <path fill="#4E90F9" d="M60.946 43.208c-1.385.613-2.981.947-4.773.947-2.442 0-5.163-.564-8.09-1.679-12.16-4.632-21.687-16.378-21.687-26.74 0-5.961 3.048-9.808 8.27-10.651.717-.117 1.475-.179 2.273-.179 2.605 0 5.52.608 8.665 1.805C57.649 11.299 66.73 22.596 66.73 32.988c0 4.994-2.134 8.605-5.785 10.22M46.843 5.377C33.541.31 23.917 5.109 23.917 15.817c0 10.71 9.624 23.09 22.926 28.158 13.028 4.962 22.369-.197 22.369-10.905 0-10.709-9.34-22.732-22.369-27.693" transform="translate(-289 -2004) translate(115 1859) translate(41 113) translate(133 32) translate(6 5)"/>
                            <path fill="#0BC0CF" d="M99.292 60.372l-3.327 7.163c-.65-.726-1.627-1.303-2.827-1.641-1.876-.53-5.49-1.295-7.616-1.782l-4.827-7.523 3.842 2.082c1.361.74 2.963 1.262 4.682 1.52 1.57.236 3.552.499 5.145.594 1.676.091 3.365-.05 4.928-.413" transform="translate(-289 -2004) translate(115 1859) translate(41 113) translate(133 32) translate(6 5)"/>
                            <path fill="#FCBAC0" d="M63.853 51.246c-.011-.907.184-2.02 1.126-2.285 1.23-.34 3.085 2.392 3.085 2.392s-.255-.714-.273-.976c-.01-.305.253-.662.598-.66.435-.002.61.245.62.639l.816 1.782c.04.248.04.505-.04.751l-.136.486c-.152.54-.085 1.098.216 1.613l.999 1.731-3.417.977-1.058-2.874c-.27-.344-.885-.886-1.441-1.402-.692-.634-1.085-1.385-1.095-2.174" transform="translate(-289 -2004) translate(115 1859) translate(41 113) translate(133 32) translate(6 5)"/>
                            <path fill="#3C2DA1" d="M94.532 117.365s0 .902 1.679 1.715c.238.116.56.26.9.403.954.397 2.242 1.127 3.06 1.64.456.28.974.485 1.657.505 1.026.034 1.929-.182 1.803-1.202-.01-.069-.02-.191-.042-.315l-.031-.164c-.02-.075-.085-1.964-.094-2.005-.125.342-.844-.993-1.29-1.006-.673-.02-.58 1.039-1.035.758-.818-.512-1.692-.278-3.938-1.034l-.43-.047c-1.745-.135-2.01.247-2.187.596-.021.054-.042.108-.052.156M81.395 122.03s1.58-.1 2.108-.115c1.244-.03 3.96-.542 4.808-.156.967.441 3.11.81 3.14-.38l1.226.262c.024.252.133 1.723.142 1.817.039.436-.096.881-.45 1.25-.814.846-3.34.354-4.784.16l-4.316-.38c-1.57-.21-2.596-.937-2.88-1.568-.073-.425.367-.815 1.006-.89" transform="translate(-289 -2004) translate(115 1859) translate(41 113) translate(133 32) translate(6 5)"/>
                            <path fill="#27145A" d="M104.277 81.164l.51 1.234c.125.305.211.617.258.932.217 1.478.243 2.965.077 4.447l-.362 3.239-1.117 26.629c.11 1.07-5.306 1.178-5.288-.107l-.998-27.88-1.711.48-2.821 31.362c0 1.102-5.409 1.205-5.462-.12 0 0-1.598-31.68-1.787-36.651-.134-3.503 9.515-2.563 9.515-2.711l-5.004-2.58 14.19 1.726z" transform="translate(-289 -2004) translate(115 1859) translate(41 113) translate(133 32) translate(6 5)"/>
                            <path fill="#33E7D2" d="M104.412 74.528l1.516-10.385c.138-2.6-2.797-3.912-5.737-4.01-.271-.009-.545-.012-.821 0-.688.03-1.388.13-2.06.3-.254.059-2.158-.685-2.414-.605l-3.324 1.166-.093.032s-2.066.887-2.728.981c-2.329.33-3.35.227-5.884.267-2.432.038-5.651.035-7.02.031-.406-.001-.769-.16-.933-.404l-4.515-6.86c-.651-.62-4.702.385-4.373 1.205 0 0 3.784 9.752 5.676 10.37 2.216.726 8.671.46 10.937 1.234 1.568.536 1.133.96 1.537 2.094l.091.258c.613 1.722.857 3.489.729 5.254-.22 3.04-.504 7.667-.218 8.061 1.466 2.02 19.872 1.458 20.113-1.557l-.525-5.948c-.041-.494-.027-.99.046-1.484" transform="translate(-289 -2004) translate(115 1859) translate(41 113) translate(133 32) translate(6 5)"/>
                            <path fill="#FCBAC0" d="M87.392 57.31c.881 2.877 3.783 3.15 6.506 2.283 3.038-.967 4.9-3.32 5.08-5.042.276-2.622-2.23-4.334-5.525-4.484-7.507-.342-6.366 6.247-6.06 7.244" transform="translate(-289 -2004) translate(115 1859) translate(41 113) translate(133 32) translate(6 5)"/>
                            <path fill="#FCBAC0" d="M97.133 55.95l-.306 5.72c-.014.268-.403.516-1.097.664-1.2.26-2.865.15-3.734-.251-.35-.163-.513-.352-.503-.537-.014-.001.291-5.72.291-5.72l5.349.125z" transform="translate(-289 -2004) translate(115 1859) translate(41 113) translate(133 32) translate(6 5)"/>
                            <path fill="#27145A" d="M93.677 53.722c-.955.822-2.373 1.252-3.719 1.21-.436-.01-.856-.716-1.41-1.132-.36-.27-.907-.256-1.13-.387-.975-.57-1.126-2.64 1.055-3.466 2.138-.809 4.297-.822 5.778-.636.22.027-1.176.47-.997.562 1.7.86 1.888 2.583.423 3.85" transform="translate(-289 -2004) translate(115 1859) translate(41 113) translate(133 32) translate(6 5)"/>
                            <path fill="#27145A" d="M94.558 58.022l-.643-1.704c-.17-.452-.51-.867-.986-1.208-.49-.35-1.106-.61-1.793-.758l-2.588-.552c.155 1.44 1.084 2.628 3.097 4.03.97.677 2.017 1.086 3.02 1.234l.015-.276c.014-.258-.027-.516-.122-.766" transform="translate(-289 -2004) translate(115 1859) translate(41 113) translate(133 32) translate(6 5)"/>
                            <path fill="#27145A" d="M94.251 49.311c-3.15-.188-5.728 1.52-5.734 4.037 0 .154.015.304.031.452l2.588.552c.687.148 1.304.408 1.793.757.477.342.816.757.986 1.208l.643 1.705c.096.25.136.508.122.766l-.015.276c1.937.286 4.152-.663 4.9-2.446.393-.939 3.844-6.76-5.314-7.307" transform="translate(-289 -2004) translate(115 1859) translate(41 113) translate(133 32) translate(6 5)"/>
                            <path fill="#FCBAC0" d="M89.54 56.708c-.722.59-.838 1.32-.257 1.63.582.31 1.638.082 2.362-.507.722-.591.837-1.321.257-1.63-.581-.31-1.64-.082-2.362.507" transform="translate(-289 -2004) translate(115 1859) translate(41 113) translate(133 32) translate(6 5)"/>
                            <path fill="#A2B7E8" d="M102.758 16.926l2.471 1.63 2.473-1.63-2.473-1.63-2.471 1.63zm2.471 1.972l-2.99-1.972 2.99-1.972 2.991 1.972-2.99 1.972zM123.445 128.773h5.798l-2.899-2.42-2.899 2.42zm6.555.242h-7.312l3.656-3.052 3.656 3.052z" transform="translate(-289 -2004) translate(115 1859) translate(41 113) translate(133 32) translate(6 5)"/>
                            <path fill="#FF70E9" d="M1.675 72.068C.5 71.883-.221 71.104.06 70.33c.282-.774 1.462-1.25 2.635-1.064 1.174.186 1.896.964 1.614 1.738-.283.774-1.462 1.25-2.635 1.064" transform="translate(-289 -2004) translate(115 1859) translate(41 113) translate(133 32) translate(6 5)"/>
                        </g>
                    </g>
                </g>
            </g>
        </g>
    </g>
</svg>
