<svg xmlns="http://www.w3.org/2000/svg" viewBox="0 0 212 212"><defs><style>.cls-1{fill:#ffbc5c;fill-rule:evenodd;}</style></defs><g id="Layer_2" data-name="Layer 2"><g id="Layer_1-2" data-name="Layer 1"><path class="cls-1" d="M105.88,212C49.84,212.83-1.94,165.83.06,102.4,1.85,45.5,49.09-.7,107.4,0,164.91.7,212.29,48.41,212,106.32,211.7,164.89,164.22,212.17,105.88,212ZM186.8,42.06c-3.06,1.39-5.46,3-8.09,3.56-7.61,1.48-14.77,3.77-20.94,8.75a10.73,10.73,0,0,1-5.63,2.48c-11.84.75-19.39,9.88-29.14,14.67a3.08,3.08,0,0,0-1.44,1.82c-2.09,8.82-5.88,17.67-3,26.8,4.28,13.46,9.43,26.64,14.1,40,2.94,8.39,10.1,14.8,10.87,24.25.76,9.3,5.41,16.85,11.46,23.73,1.67,1.9,2.53,4.52,3.76,6.81C213.73,163,225.24,87.85,186.8,42.06ZM51.67,194.53c2.09-3,3.89-5.8,5.93-8.42A47.35,47.35,0,0,0,67.17,166c1.08-5.37,3.54-10.48,5.62-15.61.94-2.32,2.75-4.28,3.69-6.6,3.66-9,6.54-18.37,10.79-27.07,7-14.29,7.16-28.53,1.8-43.15a7,7,0,0,0-2-2.5C74.44,59.81,56.9,58,43.35,48.42c-1.08-.77-2.76-.65-4.13-1.06-5-1.53-10-3.1-15.38-4.77C-13.81,87.17-2.77,163,51.67,194.53ZM183.38,37.27c-21.81-23.13-47.22-35.07-77.92-35S49.28,14,27.72,37.32c2.49.4,4.55,1.27,5,.72,2.29-2.53,4-.69,5.17.69,4.18,4.89,9.53,6.59,15.69,6.92,2.15.13,4.24,1.28,6.36,2,10,3.3,19.79,7.09,29.94,9.63,3.12.78,7.26-1.54,10.52-3.25.56-.29-.75-4.73-1.63-7.09-1.14-3-.06-10.42,2.22-12.65,3-3,9-1.71,10.3,2.38s2.84,8.45-.61,12.71c-.85,1-.33,5,.5,5.31,3.26,1.37,7.28,3.23,10.33,2.41,10.57-2.85,20.85-6.77,31.24-10.26a16.73,16.73,0,0,1,4.57-1.28c6-.15,11.21-1.93,15.33-6.59.95-1.08,2.69-1.46,4.07-2.17C178.37,40.72,180.23,37.45,183.38,37.27Zm-77.72,81.36c-1.06,1-1.91,1.35-2.16,2-6.29,15.85-20.16,27-26,43.4-3.8,10.77-11,20.33-16.9,30.34-1.9,3.25-1.49,4.93,2.11,6.5,16.9,7.37,34.6,11,52.78,8.48,11.24-1.52,22.13-5.67,33.09-8.94,1.15-.34,2.77-3.08,2.4-3.93-2.4-5.54-5.24-10.89-8.06-16.24-4.22-8-8.55-15.95-12.83-23.92-1.05-2-2-4-3.2-5.84-6.27-9.62-12.62-19.21-19-28.79C107.38,120.77,106.66,120,105.66,118.63Z"/></g></g></svg>