<svg xmlns="http://www.w3.org/2000/svg" xmlns:xlink="http://www.w3.org/1999/xlink" width="657" height="655" viewBox="0 0 657 655">
    <defs>
        <path id="a01xocg6ya" d="M0 92.71L1.378 94 2.009 93.375 95 1.293 93.622 0z"/>
        <path id="84bzghohwd" d="M2.41 2.569c-3.275 3.363-3.203 8.744.159 12.018 3.362 3.278 8.745 3.207 12.02-.157 3.276-3.362 3.204-8.743-.158-12.018C12.778.802 10.638 0 8.5 0 6.287 0 4.077.86 2.41 2.569"/>
        <path id="ut0uppy30g" d="M2.41 2.569c-3.275 3.363-3.203 8.745.159 12.02 3.364 3.276 8.745 3.204 12.02-.158 3.276-3.362 3.204-8.744-.158-12.02C12.779.8 10.639 0 8.501 0c-2.213 0-4.424.858-6.09 2.569"/>
        <path id="h6toe7zudj" d="M2.41 2.568c-3.275 3.365-3.203 8.745.159 12.02 3.362 3.277 8.745 3.206 12.02-.158 3.275-3.361 3.205-8.744-.158-12.02C12.778.802 10.637 0 8.5 0 6.286 0 4.077.858 2.41 2.568"/>
        <path id="ns5ensooom" d="M2.411 2.569c-3.275 3.363-3.205 8.745.158 12.02 3.364 3.276 8.744 3.204 12.02-.158 3.275-3.362 3.206-8.745-.158-12.02C12.778.8 10.638 0 8.501 0 6.287 0 4.077.858 2.41 2.569"/>
        <path id="qr7kke5bzp" d="M2.41 2.57c-3.275 3.362-3.203 8.743.158 12.019 3.364 3.275 8.745 3.205 12.02-.157 3.276-3.364 3.206-8.745-.156-12.02C12.779.803 10.638 0 8.5 0 6.287 0 4.076.86 2.41 2.57"/>
        <path id="m0nu8x8ugs" d="M2.413 2.57c-3.278 3.362-3.207 8.743.157 12.018 3.362 3.276 8.744 3.207 12.018-.158 3.276-3.363 3.207-8.743-.157-12.018C12.78.802 10.64 0 8.501 0 6.29 0 4.079.86 2.414 2.57"/>
        <path id="w1zg52cu4v" d="M2.411 2.57c-3.275 3.362-3.205 8.743.159 12.02 3.362 3.275 8.743 3.203 12.019-.16 3.275-3.361 3.205-8.743-.157-12.02C12.779.802 10.64 0 8.502 0c-2.213 0-4.424.86-6.09 2.57"/>
        <path id="e8jzn4y62y" d="M2.412 2.569c-3.276 3.363-3.207 8.745.157 12.02 3.364 3.276 8.744 3.204 12.02-.16 3.276-3.36 3.204-8.743-.159-12.019C12.78.802 10.64 0 8.502 0 6.29 0 4.077.86 2.412 2.569"/>
        <path id="udl0kbuctB" d="M2.41 2.567c-3.275 3.365-3.202 8.746.158 12.021 3.364 3.277 8.745 3.205 12.022-.157 3.275-3.362 3.202-8.745-.158-12.02C12.777.8 10.638-.002 8.499 0 6.287 0 4.077.858 2.41 2.567"/>
        <path id="0moysar2lE" d="M48.244.435c-3.322 1.055-6.104 3.027-8.83 5.1-.457.352-.906.695-1.353 1.04-3.431 2.652-8.33 4.082-11.636 1.802-1.353-.937-2.997-1.948-4.806-2.842-4.52-2.25-10.09-3.766-14.804-1.53-.926.439-1.816.952-2.65 1.53C2.62 6.582 1.23 7.821 0 9.125L18.321 52h21.764L59.943 5.535C60.575 2.985 55.883 0 51.183 0c-.995 0-1.992.134-2.939.435"/>
        <path id="mhre5n1awH" d="M44.346.647L25.082 20.738C10.403 36.048 1.717 55.861.528 76.735l-.46 8.098C-1.328 109.366 18.804 130 44.133 130h20.733c25.33 0 45.46-20.634 44.066-45.167l-.46-8.098c-1.188-20.874-9.875-40.687-24.554-55.997L64.654.648 54.5 0 44.346.647z"/>
        <path id="e9miioo2yK" d="M0 655L657 655 657 0 0 0z"/>
        <path id="5e5a52ju4N" d="M0 6.547L41.873 60 47 53.453 5.127 0z"/>
        <path id="pbt5mvvm1Q" d="M0 80.001C0 124.113 28.485 160 63.5 160c35.014 0 63.5-35.887 63.5-79.999C127 35.888 98.514 0 63.5 0 28.484 0 0 35.888 0 80.001m7.326 0c0-39.022 25.2-70.768 56.173-70.768 30.975 0 56.173 31.746 56.173 70.768 0 39.022-25.198 70.769-56.173 70.769-30.973 0-56.173-31.747-56.173-70.769"/>
        <path id="il09js2j1T" d="M0 655L657 655 657 0 0 0z"/>
        <path id="208pkg4gjV" d="M0 68.5C0 106.331 32.014 137 71.501 137 110.99 137 143 106.331 143 68.5S110.99 0 71.501 0C32.014 0 0 30.669 0 68.5"/>
        <path id="o2jjbcvihX" d="M0 68.5C0 106.331 32.014 137 71.501 137 110.99 137 143 106.331 143 68.5S110.99 0 71.501 0C32.014 0 0 30.669 0 68.5"/>
        <linearGradient id="i9xgjpt52b" x1="13.544%" x2="86.457%" y1="41.925%" y2="58.076%">
            <stop offset="0%" stop-color="#B6AFFF"/>
            <stop offset="100%" stop-color="#978EFF"/>
        </linearGradient>
        <linearGradient id="k40bn99ome" x1="1.286%" x2="98.71%" y1="38.695%" y2="61.307%">
            <stop offset="0%" stop-color="#B6AFFF"/>
            <stop offset="100%" stop-color="#978EFF"/>
        </linearGradient>
        <linearGradient id="ijmzbic57h" x1="1.288%" x2="98.713%" y1="38.696%" y2="61.309%">
            <stop offset="0%" stop-color="#B6AFFF"/>
            <stop offset="100%" stop-color="#978EFF"/>
        </linearGradient>
        <linearGradient id="f1qi1l7g3k" x1="1.288%" x2="98.71%" y1="38.692%" y2="61.306%">
            <stop offset="0%" stop-color="#B6AFFF"/>
            <stop offset="100%" stop-color="#978EFF"/>
        </linearGradient>
        <linearGradient id="b9ssewjcbn" x1="1.289%" x2="98.713%" y1="38.695%" y2="61.309%">
            <stop offset="0%" stop-color="#B6AFFF"/>
            <stop offset="100%" stop-color="#978EFF"/>
        </linearGradient>
        <linearGradient id="g95hrt5wzq" x1="1.286%" x2="98.714%" y1="38.697%" y2="61.31%">
            <stop offset="0%" stop-color="#B6AFFF"/>
            <stop offset="100%" stop-color="#978EFF"/>
        </linearGradient>
        <linearGradient id="orq43qnk9t" x1="1.292%" x2="98.713%" y1="38.694%" y2="61.306%">
            <stop offset="0%" stop-color="#B6AFFF"/>
            <stop offset="100%" stop-color="#978EFF"/>
        </linearGradient>
        <linearGradient id="csb6id8xww" x1="1.289%" x2="98.715%" y1="38.692%" y2="61.305%">
            <stop offset="0%" stop-color="#B6AFFF"/>
            <stop offset="100%" stop-color="#978EFF"/>
        </linearGradient>
        <linearGradient id="kp7egx4r2z" x1="1.291%" x2="98.711%" y1="38.696%" y2="61.31%">
            <stop offset="0%" stop-color="#B6AFFF"/>
            <stop offset="100%" stop-color="#978EFF"/>
        </linearGradient>
        <linearGradient id="1b0wvff33C" x1="1.288%" x2="98.711%" y1="38.691%" y2="61.305%">
            <stop offset="0%" stop-color="#B6AFFF"/>
            <stop offset="100%" stop-color="#978EFF"/>
        </linearGradient>
        <linearGradient id="5nn3piq3lF" x1="-16.759%" x2="83.241%" y1="49.999%" y2="49.999%">
            <stop offset="0%" stop-color="#6B2195"/>
            <stop offset="100%" stop-color="#A85BD1"/>
        </linearGradient>
        <linearGradient id="ro3bp7g5gI" x1="0%" x2="100%" y1="50%" y2="50%">
            <stop offset="0%" stop-color="#6B2195"/>
            <stop offset="100%" stop-color="#A85BD1"/>
        </linearGradient>
        <linearGradient id="goawzcr7zM" x1="0%" x2="100.01%" y1="50%" y2="50%">
            <stop offset="0%" stop-color="#7567D4"/>
            <stop offset="100%" stop-color="#4423AF"/>
        </linearGradient>
        <linearGradient id="wyp46bfrsO" x1="-.001%" x2="99.998%" y1="49.999%" y2="49.999%">
            <stop offset="0%" stop-color="#7567D4"/>
            <stop offset="100%" stop-color="#4423AF"/>
        </linearGradient>
        <linearGradient id="hv1e1tgcwR" x1="0%" x2="100%" y1="50%" y2="50%">
            <stop offset="0%" stop-color="#7567D4"/>
            <stop offset="100%" stop-color="#4423AF"/>
        </linearGradient>
        <linearGradient id="cxhyfrg5sY" x1="0%" x2="90.121%" y1="50%" y2="50%">
            <stop offset="0%" stop-color="#65FFDE"/>
            <stop offset="100%" stop-color="#49A0DD"/>
        </linearGradient>
    </defs>
    <g fill="none" fill-rule="evenodd">
        <g>
            <g>
                <g>
                    <path fill="#AEA7FA" d="M521.588 242.788l9.436 4.695c11.755-1.345 22.874-8.156 29.075-17.834 3.805-5.938 2.3-10.191.36-11.6-.962-.698-2.313-1.142-3.62-1.573-2.378-.784-5.074-1.673-5.77-4.352-.8-3.082 1.623-5.72 7.2-7.842 12.288-4.679 22.325-14.59 26.848-26.513 1.423-3.753 1.905-6.756 1.517-9.456-.475-3.315-2.422-6.078-5.082-7.209-1.087-.462-2.406-.725-3.682-.977-2.71-.537-5.514-1.094-6.986-3.568-2.174-3.655.981-7.98 2.497-10.059 2.648-3.627 5.768-8.485 6.411-13.878.528-4.436-.983-10.123-5.551-12.825-1.756-1.041-3.925-1.59-6.274-1.59-1.875 0-3.856.35-5.73 1.01-4.201 1.477-7.823 4.276-10.888 6.785-16.254 13.301-30.05 29.95-39.894 48.147-3.413 6.31-8.076 15.883-9.158 26.137-1.698 16.075 5.874 32.747 19.291 42.502zm9.01 6.901l-10.28-5.134c-14.077-10.188-22.023-27.65-20.246-44.486 1.121-10.619 5.901-20.444 9.4-26.91 9.975-18.44 23.954-35.31 40.425-48.79 3.213-2.629 7.022-5.568 11.57-7.169 2.117-.744 4.365-1.14 6.5-1.14 2.764 0 5.34.662 7.447 1.91 4.678 2.769 7.332 8.754 6.6 14.895-.7 5.873-4.001 11.029-6.8 14.865-2.005 2.748-3.681 5.591-2.389 7.765.973 1.633 3.069 2.048 5.498 2.53 1.39.277 2.829.562 4.136 1.117 3.363 1.43 5.811 4.832 6.391 8.88.439 3.057-.08 6.388-1.632 10.48-4.737 12.49-15.252 22.874-28.127 27.774-4.368 1.664-6.337 3.456-5.851 5.33.375 1.442 1.883 2.035 4.326 2.841 1.472.483 2.995.986 4.24 1.89 4.43 3.218 3.209 9.738.198 14.436-6.614 10.323-18.52 17.556-31.07 18.88l-.336.036z" transform="translate(-84 -998) translate(84 998) translate(0 237)"/>
                    <path fill="#AEA7FA" d="M511.206 226.271l-2.177-.49c9.89-40.557 45.393-87.672 52.996-94.552l1.533 1.56c-7.504 6.794-42.567 53.351-52.352 93.482M86.272 83.46c1.49 0 2.786.148 3.964.45 6.407 1.643 11.355 8.824 10.382 15.067-.401 2.578-2.035 6.13-3.476 9.263-.506 1.1-.983 2.139-1.332 2.98-2.273 5.493-2.362 11.524-.253 17.445 1.977 5.554 5.887 10.85 11.007 14.912 2.702 2.144 15.262 4.863 25.524 4.863 3.042 0 5.517-.244 7.354-.73 7.19-1.898 13.896-2.117 18.314-2.117 2.401 0 4.641.07 6.808.138 1.858.06 3.614.116 5.229.116 3.942 0 6.363-.353 8.095-1.18 4.07-1.947 9.338-6.74 11.334-18.523 3.157-18.638-2.739-38.21-15.77-52.357-1.415-1.534-2.984-3.058-4.878-3.804-1.19-.47-2.502-.64-3.891-.822-1.35-.177-2.743-.36-4.093-.834-4.066-1.426-8.481-6.184-8.676-15.256-.036-1.691.036-3.41.108-5.073.175-4.131.341-8.031-1.01-11.681-3.622-9.784-9.672-13.89-21.58-14.646-.357-.023-.709-.034-1.046-.034-3.389 0-5.186 1.16-6.924 2.282-1.606 1.037-3.264 2.11-5.88 2.11-.509 0-1.044-.042-1.596-.124-4.907-.726-8.942-3.864-11.11-5.55l-.418-.324c-2.974-2.291-5.252-4.522-7.456-6.68-3.639-3.562-6.781-6.639-12.18-9.225-2.667-1.277-5.913-1.98-9.139-1.98-5.533 0-12.575 2.223-14.21 8.487-1.676 6.419 4.076 11.666 10.165 17.22 2.415 2.204 4.914 4.484 6.958 6.872 4.174 4.879 3.51 12.175-1.48 16.265-3.256 2.67-8.89 7.873-10.035 12.73C62.9 72.98 67.71 79.63 72.94 82.763c1.386.83 2.984 1.2 5.182 1.2 1.26 0 2.547-.118 3.911-.244 1.385-.127 2.817-.258 4.24-.258m45.816 67.126c-10.193 0-23.542-2.652-26.948-5.356-5.435-4.31-9.589-9.948-11.699-15.87-2.283-6.412-2.181-12.96.291-18.934.364-.879.85-1.934 1.365-3.052 1.315-2.86 2.952-6.423 3.31-8.716.805-5.157-3.447-11.317-8.748-12.675-.988-.255-2.094-.378-3.387-.378-1.317 0-2.694.128-4.028.25-1.355.125-2.758.253-4.123.253-2.605 0-4.627-.484-6.365-1.525-7.505-4.498-10.898-12.673-8.854-21.338 1.288-5.46 7.295-11.044 10.762-13.887 4.07-3.337 4.61-9.29 1.204-13.272-1.957-2.287-4.405-4.519-6.771-6.679-6.286-5.733-12.786-11.663-10.793-19.296C58.908 3.97 65.336 0 73.684 0c3.615 0 7.121.763 10.137 2.206 5.733 2.746 9.156 6.097 12.778 9.644 2.158 2.111 4.389 4.295 7.259 6.508l.426.33c2.145 1.668 5.733 4.459 10.043 5.096.439.065.861.099 1.254.099 1.934 0 3.125-.77 4.633-1.743 1.922-1.242 4.102-2.65 8.172-2.65.386 0 .788.014 1.194.04 12.795.812 19.615 5.467 23.54 16.068 1.495 4.041 1.312 8.335 1.134 12.488-.069 1.63-.14 3.317-.106 4.941.114 5.239 2.067 11.48 7.21 13.285 1.123.394 2.339.553 3.627.723 1.467.192 2.986.39 4.438.963 2.318.913 4.11 2.639 5.704 4.368 13.47 14.623 19.564 34.856 16.302 54.121-1.186 7-4.323 16.17-12.544 20.099-2.593 1.24-6.05 1.407-9.091 1.407h-.001c-1.652 0-3.425-.057-5.303-.116-2.149-.07-4.37-.14-6.734-.14-4.288 0-10.79.213-17.721 2.043-2.031.536-4.705.807-7.947.807" transform="translate(-84 -998) translate(84 998) translate(0 237)"/>
                    <path fill="#AEA7FA" d="M162.455 129.03c-19.766-42.451-58.057-82.767-74.407-99.983l1.652-1.445c16.423 17.292 54.883 57.786 74.796 100.552l-2.041.876z" transform="translate(-84 -998) translate(84 998) translate(0 237)"/>
                    <path fill="#3588BC" d="M0 262.73c0-84.649 71.498-153.27 159.69-153.27 88.198 0 159.693 68.621 159.693 153.27 0 84.649-71.495 153.27-159.692 153.27C71.498 416 0 347.379 0 262.73" transform="translate(-84 -998) translate(84 998) translate(0 237)"/>
                    <path fill="#ACD6EF" d="M31.995 262.73c0-67.689 57.172-122.56 127.696-122.56 70.527 0 127.696 54.871 127.696 122.56s-57.17 122.56-127.696 122.56c-70.524 0-127.696-54.871-127.696-122.56" transform="translate(-84 -998) translate(84 998) translate(0 237)"/>
                    <path fill="#867DE3" d="M175.203 266.457c.668-.897 1.118-1.936 1.304-3.048.347-2.064-.26-4.168-1.656-5.77l-58.935-67.579-11.52 9.255 53.38 61.208-59.026 35.172 7.923 12.25 66.38-39.555c.853-.508 1.58-1.167 2.15-1.933" transform="translate(-84 -998) translate(84 998) translate(0 237)"/>
                    <path fill="#BCB6F9" d="M166.437 158.193c0 3.575-3.02 6.474-6.745 6.474-3.726 0-6.746-2.899-6.746-6.474s3.02-6.475 6.746-6.475c3.725 0 6.745 2.9 6.745 6.475M219.992 175.436c-1.863 3.096-5.988 4.157-9.214 2.37-3.228-1.788-4.333-5.749-2.47-8.845 1.863-3.096 5.988-4.157 9.214-2.37 3.228 1.788 4.333 5.749 2.47 8.845M257.39 216.069c-3.227 1.788-7.353.727-9.215-2.37-1.863-3.096-.758-7.057 2.47-8.844 3.224-1.788 7.35-.727 9.214 2.369 1.861 3.097.756 7.057-2.47 8.845M268.609 269.205c-3.727 0-6.745-2.9-6.745-6.475 0-3.575 3.018-6.475 6.745-6.475 3.725 0 6.745 2.9 6.745 6.475 0 3.575-3.02 6.475-6.745 6.475M250.644 320.606c-3.226-1.789-4.331-5.748-2.47-8.846 1.863-3.096 5.989-4.157 9.215-2.368 3.226 1.788 4.332 5.747 2.47 8.843-1.864 3.098-5.99 4.159-9.215 2.37M208.308 356.5c-1.863-3.097-.758-7.058 2.47-8.846 3.226-1.787 7.35-.726 9.214 2.37 1.863 3.096.758 7.057-2.47 8.845-3.226 1.787-7.35.726-9.214-2.37M152.946 367.267c0-3.575 3.02-6.475 6.745-6.475 3.726 0 6.746 2.9 6.746 6.475 0 3.575-3.02 6.475-6.746 6.475-3.725 0-6.745-2.9-6.745-6.475" transform="translate(-84 -998) translate(84 998) translate(0 237)"/>
                    <path fill="#867DE3" d="M99.391 350.024c1.863-3.096 5.989-4.157 9.214-2.37 3.228 1.788 4.333 5.749 2.47 8.845-1.863 3.096-5.988 4.157-9.216 2.37-3.226-1.788-4.331-5.749-2.468-8.845M61.994 309.391c3.226-1.788 7.35-.727 9.214 2.37 1.863 3.096.758 7.057-2.47 8.844-3.225 1.788-7.35.727-9.214-2.369-1.861-3.097-.756-7.055 2.47-8.845M50.774 256.255c3.727 0 6.745 2.9 6.745 6.475 0 3.575-3.018 6.475-6.745 6.475-3.725 0-6.745-2.9-6.745-6.475 0-3.575 3.02-6.475 6.745-6.475M68.74 204.854c3.225 1.789 4.33 5.748 2.469 8.846-1.863 3.096-5.99 4.157-9.214 2.368-3.228-1.786-4.333-5.747-2.47-8.843 1.862-3.098 5.988-4.159 9.214-2.37M111.075 168.961c1.863 3.096.758 7.057-2.47 8.845-3.225 1.787-7.35.726-9.214-2.37-1.863-3.096-.758-7.057 2.468-8.845 3.228-1.787 7.353-.726 9.216 2.37" transform="translate(-84 -998) translate(84 998) translate(0 237)"/>
                    <path fill="#6456C4" d="M207.487 409.013c-15.091 4.538-31.146 6.986-47.796 6.986-22.344 0-43.613-4.411-62.923-12.365L162.911 109.5h.213l44.363 299.513z" transform="translate(-84 -998) translate(84 998) translate(0 237)"/>
                    <path fill="#FFC587" d="M109.224 385.396l-55.318 30.068c-2.063 1.122-4.685.425-5.855-1.555l-4.401-7.46c-1.169-1.981-.442-4.497 1.621-5.62l55.318-30.066c2.065-1.122 4.685-.426 5.855 1.555l4.402 7.46c1.168 1.981.443 4.497-1.622 5.618" transform="translate(-84 -998) translate(84 998) translate(0 237)"/>
                    <path fill="#FFA15E" d="M106.846 381.367l-55.318 30.066c-2.065 1.122-4.685.426-5.855-1.555l2.379 4.03c1.168 1.98 3.79 2.678 5.854 1.555l55.318-30.066c2.065-1.122 2.79-3.639 1.62-5.62l-2.376-4.03c1.168 1.981.441 4.497-1.622 5.62" transform="translate(-84 -998) translate(84 998) translate(0 237)"/>
                    <path fill="#FFA15E" d="M100.59 370.762l-8.185 4.448c2.065-1.122 4.686-.424 5.854 1.557l4.402 7.458c1.169 1.983.443 4.498-1.621 5.62l8.184-4.45c2.064-1.12 2.79-3.637 1.621-5.617l-4.401-7.46c-1.169-1.981-3.79-2.678-5.855-1.556" transform="translate(-84 -998) translate(84 998) translate(0 237)"/>
                    <path fill="#FFF" d="M83.019 394.902l-4.4-7.458c-1.17-1.984-.445-4.5 1.62-5.62l-9.443 5.132c-2.065 1.122-2.79 3.637-1.622 5.62l4.402 7.459c1.169 1.98 3.79 2.676 5.855 1.555l9.443-5.132c-2.064 1.122-4.687.425-5.855-1.556" transform="translate(-84 -998) translate(84 998) translate(0 237)"/>
                    <path fill="#FFC587" d="M168.988 399.182h-63.573c-2.373 0-4.296-1.846-4.296-4.123v-8.571c0-2.279 1.923-4.124 4.296-4.124h63.573c2.372 0 4.294 1.845 4.294 4.124v8.57c0 2.278-1.922 4.124-4.294 4.124" transform="translate(-84 -998) translate(84 998) translate(0 237)"/>
                    <path fill="#FFA15E" d="M168.988 394.55h-63.573c-2.373 0-4.296-1.846-4.296-4.123v4.631c0 2.279 1.923 4.123 4.296 4.123h63.573c2.372 0 4.294-1.844 4.294-4.123v-4.631c0 2.277-1.922 4.123-4.294 4.123" transform="translate(-84 -998) translate(84 998) translate(0 237)"/>
                    <path fill="#FFA15E" d="M168.988 382.364h-9.406c2.372 0 4.296 1.846 4.296 4.123v8.571c0 2.279-1.924 4.124-4.296 4.124h9.406c2.372 0 4.294-1.845 4.294-4.124v-8.57c0-2.278-1.922-4.124-4.294-4.124" transform="translate(-84 -998) translate(84 998) translate(0 237)"/>
                    <path fill="#FFF" d="M145.206 395.059v-8.571c0-2.279 1.924-4.123 4.295-4.123H138.65c-2.372 0-4.296 1.844-4.296 4.123v8.57c0 2.278 1.924 4.124 4.296 4.124h10.85c-2.37 0-4.294-1.846-4.294-4.123" transform="translate(-84 -998) translate(84 998) translate(0 237)"/>
                    <path fill="#FFC587" d="M168.988 416h-63.573c-2.373 0-4.296-1.847-4.296-4.124v-8.57c0-2.279 1.923-4.124 4.296-4.124h63.573c2.372 0 4.294 1.845 4.294 4.123v8.571c0 2.277-1.922 4.124-4.294 4.124" transform="translate(-84 -998) translate(84 998) translate(0 237)"/>
                    <path fill="#FFA15E" d="M168.988 411.368h-63.573c-2.373 0-4.296-1.847-4.296-4.122v4.63c0 2.278 1.923 4.123 4.296 4.123h63.573c2.372 0 4.294-1.845 4.294-4.123v-4.63c0 2.275-1.922 4.122-4.294 4.122" transform="translate(-84 -998) translate(84 998) translate(0 237)"/>
                    <path fill="#FFA15E" d="M168.988 399.182h-9.406c2.372 0 4.296 1.846 4.296 4.123v8.571c0 2.278-1.924 4.123-4.296 4.123h9.406c2.372 0 4.294-1.845 4.294-4.123v-8.571c0-2.277-1.922-4.123-4.294-4.123" transform="translate(-84 -998) translate(84 998) translate(0 237)"/>
                    <path fill="#FFF" d="M127.888 411.876v-8.57c0-2.279 1.924-4.124 4.296-4.124h-10.852c-2.373 0-4.296 1.845-4.296 4.123v8.571c0 2.277 1.923 4.124 4.296 4.124h10.852c-2.372 0-4.296-1.847-4.296-4.124" transform="translate(-84 -998) translate(84 998) translate(0 237)"/>
                </g>
                <g transform="translate(-84 -998) translate(84 998) translate(515 478)">
                    <mask id="0i3otchh8c" fill="#fff">
                        <use xlink:href="#a01xocg6ya"/>
                    </mask>
                    <path fill="url(#i9xgjpt52b)" d="M0 92.71L1.378 94 2.009 93.375 95 1.293 93.622 0z" mask="url(#0i3otchh8c)"/>
                </g>
                <g transform="translate(-84 -998) translate(84 998) translate(607 464)">
                    <mask id="abnfgabt9f" fill="#fff">
                        <use xlink:href="#84bzghohwd"/>
                    </mask>
                    <path fill="url(#k40bn99ome)" d="M2.41 2.569c-3.275 3.363-3.203 8.744.159 12.018 3.362 3.278 8.745 3.207 12.02-.157 3.276-3.362 3.204-8.743-.158-12.018C12.778.802 10.638 0 8.5 0 6.287 0 4.077.86 2.41 2.569" mask="url(#abnfgabt9f)"/>
                </g>
                <g transform="translate(-84 -998) translate(84 998) translate(582 474)">
                    <mask id="sq2gfy8hzi" fill="#fff">
                        <use xlink:href="#ut0uppy30g"/>
                    </mask>
                    <path fill="url(#ijmzbic57h)" d="M2.41 2.569c-3.275 3.363-3.203 8.745.159 12.02 3.364 3.276 8.745 3.204 12.02-.158 3.276-3.362 3.204-8.744-.158-12.02C12.779.8 10.639 0 8.501 0c-2.213 0-4.424.858-6.09 2.569" mask="url(#sq2gfy8hzi)"/>
                </g>
                <g transform="translate(-84 -998) translate(84 998) translate(563 492)">
                    <mask id="r33o3iy05l" fill="#fff">
                        <use xlink:href="#h6toe7zudj"/>
                    </mask>
                    <path fill="url(#f1qi1l7g3k)" d="M2.41 2.568c-3.275 3.365-3.203 8.745.159 12.02 3.362 3.277 8.745 3.206 12.02-.158 3.275-3.361 3.205-8.744-.158-12.02C12.778.802 10.637 0 8.5 0 6.286 0 4.077.858 2.41 2.568" mask="url(#r33o3iy05l)"/>
                </g>
                <g transform="translate(-84 -998) translate(84 998) translate(545 512)">
                    <mask id="zk23whqv1o" fill="#fff">
                        <use xlink:href="#ns5ensooom"/>
                    </mask>
                    <path fill="url(#b9ssewjcbn)" d="M2.411 2.569c-3.275 3.363-3.205 8.745.158 12.02 3.364 3.276 8.744 3.204 12.02-.158 3.275-3.362 3.206-8.745-.158-12.02C12.778.8 10.638 0 8.501 0 6.287 0 4.077.858 2.41 2.569" mask="url(#zk23whqv1o)"/>
                </g>
                <g transform="translate(-84 -998) translate(84 998) translate(524 531)">
                    <mask id="3uwt7v5j7r" fill="#fff">
                        <use xlink:href="#qr7kke5bzp"/>
                    </mask>
                    <path fill="url(#g95hrt5wzq)" d="M2.41 2.57c-3.275 3.362-3.203 8.743.158 12.019 3.364 3.275 8.745 3.205 12.02-.157 3.276-3.364 3.206-8.745-.156-12.02C12.779.803 10.638 0 8.5 0 6.287 0 4.076.86 2.41 2.57" mask="url(#3uwt7v5j7r)"/>
                </g>
                <g transform="translate(-84 -998) translate(84 998) translate(598 489)">
                    <mask id="ys1rbs0l3u" fill="#fff">
                        <use xlink:href="#m0nu8x8ugs"/>
                    </mask>
                    <path fill="url(#orq43qnk9t)" d="M2.413 2.57c-3.278 3.362-3.207 8.743.157 12.018 3.362 3.276 8.744 3.207 12.018-.158 3.276-3.363 3.207-8.743-.157-12.018C12.78.802 10.64 0 8.501 0 6.29 0 4.079.86 2.414 2.57" mask="url(#ys1rbs0l3u)"/>
                </g>
                <g transform="translate(-84 -998) translate(84 998) translate(579 507)">
                    <mask id="4bkgj2cgox" fill="#fff">
                        <use xlink:href="#w1zg52cu4v"/>
                    </mask>
                    <path fill="url(#csb6id8xww)" d="M2.411 2.57c-3.275 3.362-3.205 8.743.159 12.02 3.362 3.275 8.743 3.203 12.019-.16 3.275-3.361 3.205-8.743-.157-12.02C12.779.802 10.64 0 8.502 0c-2.213 0-4.424.86-6.09 2.57" mask="url(#4bkgj2cgox)"/>
                </g>
                <g transform="translate(-84 -998) translate(84 998) translate(560 526)">
                    <mask id="hlix5fre0A" fill="#fff">
                        <use xlink:href="#e8jzn4y62y"/>
                    </mask>
                    <path fill="url(#kp7egx4r2z)" d="M2.412 2.569c-3.276 3.363-3.207 8.745.157 12.02 3.364 3.276 8.744 3.204 12.02-.16 3.276-3.36 3.204-8.743-.159-12.019C12.78.802 10.64 0 8.502 0 6.29 0 4.077.86 2.412 2.569" mask="url(#hlix5fre0A)"/>
                </g>
                <g transform="translate(-84 -998) translate(84 998) translate(541 544)">
                    <mask id="4expa684iD" fill="#fff">
                        <use xlink:href="#udl0kbuctB"/>
                    </mask>
                    <path fill="url(#1b0wvff33C)" d="M2.41 2.567c-3.275 3.365-3.202 8.746.158 12.021 3.364 3.277 8.745 3.205 12.022-.157 3.275-3.362 3.202-8.745-.158-12.02C12.777.8 10.638-.002 8.499 0 6.287 0 4.077.858 2.41 2.567" mask="url(#4expa684iD)"/>
                </g>
                <g>
                    <path fill="#9087F4" d="M340.505 364.816L454.704 364.816 454.704 310.507 340.505 310.507z" transform="translate(-84 -998) translate(84 998) translate(148 234)"/>
                    <path fill="#6C2196" d="M352.801 364.816L467 364.816 467 310.507 352.801 310.507z" transform="translate(-84 -998) translate(84 998) translate(148 234)"/>
                    <path fill="#9F5AC4" d="M461.61 324.436v26.353c-4.713.176-8.487 3.894-8.487 8.448v.093H366.68v-.093c0-4.554-3.775-8.272-8.485-8.448v-26.353c4.71-.175 8.485-3.893 8.485-8.447h86.443c0 4.554 3.774 8.272 8.486 8.447" transform="translate(-84 -998) translate(84 998) translate(148 234)"/>
                    <path fill="#6C2196" d="M370.322 337.66c0 2.135 1.806 3.864 4.033 3.864 2.23 0 4.034-1.729 4.034-3.863 0-2.135-1.805-3.863-4.034-3.863-2.227 0-4.033 1.728-4.033 3.863M441.412 337.66c0 2.135 1.806 3.864 4.034 3.864 2.228 0 4.033-1.729 4.033-3.863 0-2.135-1.805-3.863-4.033-3.863-2.228 0-4.034 1.728-4.034 3.863" transform="translate(-84 -998) translate(84 998) translate(148 234)"/>
                    <path fill="#D7B7E8" d="M393.798 337.66c0 8.518 7.209 15.424 16.103 15.424 8.894 0 16.105-6.906 16.105-15.425 0-8.518-7.211-15.424-16.105-15.424s-16.103 6.906-16.103 15.424" transform="translate(-84 -998) translate(84 998) translate(148 234)"/>
                    <path fill="#9F5AC4" d="M410.569 345.775h-4.477c-.47 0-.852-.367-.852-.818 0-.45.383-.816.852-.816h4.477c1.263 0 2.29-.984 2.29-2.194v-1.278c0-1.21-1.027-2.193-2.29-2.193h-1.334c-2.202 0-3.995-1.718-3.995-3.828v-1.276c0-2.11 1.793-3.827 3.995-3.827h4.476c.471 0 .853.367.853.817 0 .452-.382.817-.853.817h-4.476c-1.263 0-2.29.985-2.29 2.193v1.276c0 1.21 1.027 2.195 2.29 2.195h1.334c2.203 0 3.995 1.717 3.995 3.826v1.278c0 2.109-1.792 3.828-3.995 3.828" transform="translate(-84 -998) translate(84 998) translate(148 234)"/>
                    <path fill="#9F5AC4" d="M410.057 347.925c-.47 0-.853-.366-.853-.817v-2.028c0-.451.383-.816.853-.816s.853.365.853.816v2.028c0 .45-.382.817-.853.817M410.057 331.018c-.47 0-.853-.367-.853-.818v-1.988c0-.453.383-.818.853-.818s.853.365.853.818v1.988c0 .451-.382.818-.853.818" transform="translate(-84 -998) translate(84 998) translate(148 234)"/>
                    <path fill="#171754" d="M338.97 419L364.911 419 371.861 404.988 332.02 404.988zM52.206 419L26.263 419 19.315 404.988 59.154 404.988z" transform="translate(-84 -998) translate(84 998) translate(148 234)"/>
                    <path fill="#3F7BA0" d="M0 372.884h392.15V12.679C392.15 5.676 386.222 0 378.91 0H13.239C5.926 0 0 5.676 0 12.68v360.204z" transform="translate(-84 -998) translate(84 998) translate(148 234)"/>
                    <path fill="#9087F4" d="M39.32 355.981c0 4.016 3.397 7.268 7.588 7.268 4.19 0 7.59-3.252 7.59-7.268 0-4.014-3.4-7.268-7.59-7.268-4.191 0-7.589 3.254-7.589 7.268M140.002 355.981c0 4.016 3.397 7.268 7.588 7.268 4.19 0 7.59-3.252 7.59-7.268 0-4.014-3.4-7.268-7.59-7.268-4.19 0-7.588 3.254-7.588 7.268M240.684 355.981c0 4.016 3.398 7.268 7.588 7.268 4.191 0 7.59-3.252 7.59-7.268 0-4.014-3.399-7.268-7.59-7.268-4.19 0-7.588 3.254-7.588 7.268M341.366 355.981c0 4.016 3.399 7.268 7.588 7.268 4.193 0 7.59-3.252 7.59-7.268 0-4.014-3.397-7.268-7.59-7.268-4.19 0-7.588 3.254-7.588 7.268M39.32 21.147c0 4.014 3.397 7.268 7.588 7.268 4.19 0 7.59-3.254 7.59-7.268 0-4.014-3.4-7.268-7.59-7.268-4.191 0-7.589 3.254-7.589 7.268M140.002 21.147c0 4.014 3.397 7.268 7.588 7.268 4.19 0 7.59-3.254 7.59-7.268 0-4.014-3.4-7.268-7.59-7.268-4.19 0-7.588 3.254-7.588 7.268M240.684 21.147c0 4.014 3.398 7.268 7.588 7.268 4.191 0 7.59-3.254 7.59-7.268 0-4.014-3.399-7.268-7.59-7.268-4.19 0-7.588 3.254-7.588 7.268M341.366 21.147c0 4.014 3.399 7.268 7.588 7.268 4.193 0 7.59-3.254 7.59-7.268 0-4.014-3.397-7.268-7.59-7.268-4.19 0-7.588 3.254-7.588 7.268" transform="translate(-84 -998) translate(84 998) translate(148 234)"/>
                    <path fill="#BCB6F9" d="M13.238 0h365.673c7.312 0 13.238 5.676 13.238 12.68v4.35c0-7.003-5.926-12.679-13.238-12.679H13.238C5.927 4.351 0 10.027 0 17.031v-4.352C0 5.676 5.927 0 13.238 0" transform="translate(-84 -998) translate(84 998) translate(148 234)"/>
                    <path fill="#5A5EEB" d="M373.467 320.516V52.37c0-7.593-6.424-13.745-14.35-13.745H55.964c-7.926 0-14.35 6.152-14.35 13.745v268.147c0 7.591 6.424 13.745 14.35 13.745h303.154c7.925 0 14.35-6.154 14.35-13.745" transform="translate(-84 -998) translate(84 998) translate(148 234)"/>
                    <path fill="#171754" d="M373.467 320.516V52.37c0-7.593-6.424-13.745-14.35-13.745H55.964c-7.926 0-14.35 6.152-14.35 13.745v268.147c0 7.591 6.424 13.745 14.35 13.745h303.154c7.925 0 14.35-6.154 14.35-13.745" transform="translate(-84 -998) translate(84 998) translate(148 234)"/>
                </g>
                <g transform="translate(-84 -998) translate(84 998) translate(403 388)">
                    <mask id="6rcvcer1mG" fill="#fff">
                        <use xlink:href="#0moysar2lE"/>
                    </mask>
                    <path fill="url(#5nn3piq3lF)" d="M48.244.435c-3.322 1.055-6.104 3.027-8.83 5.1-.457.352-.906.695-1.353 1.04-3.431 2.652-8.33 4.082-11.636 1.802-1.353-.937-2.997-1.948-4.806-2.842-4.52-2.25-10.09-3.766-14.804-1.53-.926.439-1.816.952-2.65 1.53C2.62 6.582 1.23 7.821 0 9.125L18.321 52h21.764L59.943 5.535C60.575 2.985 55.883 0 51.183 0c-.995 0-1.992.134-2.939.435" mask="url(#6rcvcer1mG)"/>
                </g>
                <g transform="translate(-84 -998) translate(84 998) translate(377 438)">
                    <mask id="2fnvzxzt7J" fill="#fff">
                        <use xlink:href="#mhre5n1awH"/>
                    </mask>
                    <path fill="url(#ro3bp7g5gI)" d="M44.346.647L25.082 20.738C10.403 36.048 1.717 55.861.528 76.735l-.46 8.098C-1.328 109.366 18.804 130 44.133 130h20.733c25.33 0 45.46-20.634 44.066-45.167l-.46-8.098c-1.188-20.874-9.875-40.687-24.554-55.997L64.654.648 54.5 0 44.346.647z" mask="url(#2fnvzxzt7J)"/>
                </g>
                <g transform="translate(-84 -998) translate(84 998)">
                    <path fill="#6456C4" d="M460.706 550.247h-20.904c-25.539 0-45.837-20.573-44.43-45.03l.465-8.074c1.197-20.811 9.956-40.565 24.756-55.828l2.247-2.317-1.62.103-19.422 20.03c-14.8 15.262-23.56 35.014-24.757 55.826l-.464 8.074c-1.408 24.458 18.892 45.03 44.429 45.03h20.906c17.067 0 31.784-9.197 39.255-22.593-6.115 3.045-13.066 4.779-20.461 4.779"/>
                    <path fill="#9F5AC4" d="M455.237 500.808c0 12.04-10.176 21.8-22.73 21.8-12.552 0-22.727-9.76-22.727-21.8 0-12.04 10.175-21.8 22.727-21.8 12.554 0 22.73 9.76 22.73 21.8"/>
                    <path fill="#6C2196" d="M433.476 512.77h-6.5v-2.314h6.5c1.853 0 3.359-1.443 3.359-3.22v-1.857c0-1.777-1.506-3.22-3.36-3.22h-1.934c-3.183 0-5.772-2.485-5.772-5.535v-1.858c0-3.05 2.59-5.533 5.772-5.533h6.499v2.311h-6.5c-1.852 0-3.36 1.446-3.36 3.222v1.858c0 1.776 1.508 3.22 3.36 3.22h1.936c3.182 0 5.771 2.484 5.771 5.535v1.857c0 3.051-2.589 5.534-5.771 5.534"/>
                    <path fill="#6C2196" d="M432.733 515.899c-.666 0-1.205-.518-1.205-1.156v-2.95c0-.64.539-1.157 1.205-1.157.667 0 1.206.518 1.206 1.157v2.95c0 .638-.54 1.156-1.206 1.156M432.733 491.31c-.666 0-1.205-.518-1.205-1.158v-2.891c0-.64.539-1.158 1.205-1.158.667 0 1.206.518 1.206 1.158v2.891c0 .64-.54 1.157-1.206 1.157"/>
                    <path fill="#FFC587" d="M443.708 435.345h-22.905c-1.777 0-3.217 1.38-3.217 3.084 0 1.706 1.44 3.087 3.217 3.087h22.905c1.776 0 3.216-1.381 3.216-3.087 0-1.703-1.44-3.084-3.216-3.084"/>
                    <mask id="khgj57666L" fill="#fff">
                        <use xlink:href="#e9miioo2yK"/>
                    </mask>
                    <path fill="#FFC587" d="M425.029 456.08L426.832 456.08 426.832 439.048 425.029 439.048z" mask="url(#khgj57666L)"/>
                    <path fill="#FFC587" d="M429.173 460.377l-1.568-6.395h-3.347l-1.57 6.395c-.25 1.02.557 1.997 1.65 1.997h3.186c1.092 0 1.898-.977 1.649-1.997M446.209 570.3h58.49c2.183 0 3.952-1.697 3.952-3.79v-7.882c0-2.094-1.77-3.79-3.951-3.79h-58.491c-2.182 0-3.951 1.696-3.951 3.79v7.882c0 2.093 1.77 3.79 3.951 3.79" mask="url(#khgj57666L)"/>
                    <path fill="#FFA15E" d="M446.209 566.042h58.49c2.183 0 3.952-1.697 3.952-3.79v4.258c0 2.093-1.77 3.79-3.951 3.79h-58.491c-2.182 0-3.951-1.697-3.951-3.79v-4.258c0 2.093 1.77 3.79 3.951 3.79" mask="url(#khgj57666L)"/>
                    <path fill="#FFA15E" d="M446.209 554.838h8.654c-2.183 0-3.952 1.697-3.952 3.79v7.881c0 2.095 1.769 3.791 3.952 3.791h-8.654c-2.182 0-3.951-1.696-3.951-3.79v-7.883c0-2.092 1.77-3.79 3.951-3.79" mask="url(#khgj57666L)"/>
                    <path fill="#FFF" d="M484.023 566.51v-7.882c0-2.093-1.77-3.79-3.951-3.79h9.982c2.185 0 3.954 1.697 3.954 3.79v7.882c0 2.093-1.769 3.79-3.954 3.79h-9.982c2.182 0 3.95-1.697 3.95-3.79" mask="url(#khgj57666L)"/>
                    <path fill="#FFC587" d="M379.815 570.3h58.491c2.182 0 3.951-1.697 3.951-3.79v-7.882c0-2.094-1.769-3.79-3.95-3.79h-58.492c-2.181 0-3.95 1.696-3.95 3.79v7.882c0 2.093 1.769 3.79 3.95 3.79" mask="url(#khgj57666L)"/>
                    <path fill="#FFA15E" d="M379.815 566.042h58.491c2.182 0 3.951-1.697 3.951-3.79v4.258c0 2.093-1.769 3.79-3.95 3.79h-58.492c-2.181 0-3.95-1.697-3.95-3.79v-4.258c0 2.093 1.769 3.79 3.95 3.79" mask="url(#khgj57666L)"/>
                    <path fill="#FFA15E" d="M379.815 554.838h8.655c-2.185 0-3.954 1.697-3.954 3.79v7.881c0 2.095 1.769 3.791 3.954 3.791h-8.655c-2.181 0-3.95-1.696-3.95-3.79v-7.883c0-2.092 1.769-3.79 3.95-3.79" mask="url(#khgj57666L)"/>
                    <path fill="#FFF" d="M423.816 566.51v-7.882c0-2.093-1.77-3.79-3.952-3.79h9.984c2.183 0 3.952 1.697 3.952 3.79v7.882c0 2.093-1.769 3.79-3.952 3.79h-9.984c2.182 0 3.952-1.697 3.952-3.79" mask="url(#khgj57666L)"/>
                    <path fill="#FFC587" d="M379.815 556.028h58.491c2.182 0 3.951-1.696 3.951-3.79v-7.881c0-2.094-1.769-3.793-3.95-3.793h-58.492c-2.181 0-3.95 1.699-3.95 3.793v7.882c0 2.093 1.769 3.79 3.95 3.79" mask="url(#khgj57666L)"/>
                    <path fill="#FFA15E" d="M379.815 551.77h58.491c2.182 0 3.951-1.696 3.951-3.79v4.258c0 2.093-1.769 3.79-3.95 3.79h-58.492c-2.181 0-3.95-1.697-3.95-3.79v-4.259c0 2.095 1.769 3.791 3.95 3.791" mask="url(#khgj57666L)"/>
                    <path fill="#FFA15E" d="M379.815 540.565h8.655c-2.185 0-3.954 1.698-3.954 3.79v7.883c0 2.094 1.769 3.79 3.954 3.79h-8.655c-2.181 0-3.95-1.696-3.95-3.79v-7.882c0-2.093 1.769-3.791 3.95-3.791" mask="url(#khgj57666L)"/>
                    <path fill="#FFF" d="M410.661 552.238v-7.882c0-2.093-1.77-3.79-3.952-3.79h9.982c2.185 0 3.954 1.697 3.954 3.79v7.882c0 2.093-1.769 3.79-3.954 3.79h-9.982c2.182 0 3.952-1.697 3.952-3.79" mask="url(#khgj57666L)"/>
                    <path fill="#FFA15E" d="M436.412 526.88v4.568c0 13.38 11.32 24.223 25.27 24.223h7.8c9.653 0 17.469-7.497 17.469-16.74v-18.399c0-9.87-8.345-17.874-18.652-17.874h-6.618c-10.275 0-19.135 5.883-23.074 14.35l3.8 2.584h-4.827c-.764 2.3-1.168 4.748-1.168 7.288" mask="url(#khgj57666L)"/>
                    <path fill="#FFC587" d="M445.784 526.88v4.568c0 6.69 2.835 12.739 7.412 17.129 4.562 4.39 10.883 7.094 17.858 7.094 13.95 0 25.254-10.843 25.254-24.223v-2.642h-1.993l1.993-1.24v-.686c0-13.38-11.304-24.222-25.254-24.222-13.95 0-25.27 10.842-25.27 24.222" mask="url(#khgj57666L)"/>
                    <path fill="#FFF" d="M484.22 552.091l-34.974-37.408c1.616-2.648 3.734-4.972 6.239-6.854l35.709 38.192c-1.907 2.42-4.268 4.479-6.973 6.07M445.784 531.449v-4.57c0-.477.02-.949.047-1.418l28.095 30.05c-.943.101-1.901.159-2.872.159-1.03 0-2.044-.065-3.043-.18l-22.218-23.765c-.001-.092-.009-.185-.009-.276" mask="url(#khgj57666L)"/>
                    <path fill="#FFA15E" d="M453.57 526.884v4.559c0 9.246 7.842 16.767 17.48 16.767 9.64 0 17.481-7.521 17.481-16.767v-4.56c0-9.244-7.842-16.764-17.48-16.764-9.64 0-17.481 7.52-17.481 16.765m-3.113 4.559v-4.56c0-10.89 9.239-19.752 20.594-19.752 11.354 0 20.594 8.862 20.594 19.753v4.559c0 10.893-9.24 19.753-20.594 19.753-11.355 0-20.594-8.86-20.594-19.753" mask="url(#khgj57666L)"/>
                    <path fill="#FFA15E" d="M471.05 534.398L479.118 539.563 476.489 530.608 484.105 524.846 474.412 524.475 471.05 515.749 467.689 524.475 457.996 524.846 465.612 530.608 462.983 539.563z" mask="url(#khgj57666L)"/>
                    <path fill="#70BBE8" d="M405.915 266.656h-47.376V575.07h47.376c8.256 0 14.95-6.419 14.95-14.338V280.995c0-7.919-6.694-14.34-14.95-14.34" mask="url(#khgj57666L)"/>
                    <path fill="#171754" d="M408.31 348.069c0 5.21 4.404 9.434 9.837 9.434h4.997c1.92-1.721 4.838-6.713 4.838-9.434 0-2.888-2.708-7.703-4.838-9.432h-4.997c-5.433 0-9.836 4.223-9.836 9.432" mask="url(#khgj57666L)"/>
                    <path fill="#BCB6F9" d="M413.309 348.069c0 5.21 4.402 9.434 9.834 9.434 5.433 0 9.835-4.224 9.835-9.434 0-5.209-4.402-9.432-9.835-9.432-5.432 0-9.834 4.223-9.834 9.432" mask="url(#khgj57666L)"/>
                    <path fill="#171754" d="M408.31 493.657c0 5.21 4.404 9.434 9.837 9.434h4.997c1.92-1.72 4.838-6.713 4.838-9.434 0-2.887-2.708-7.703-4.838-9.432h-4.997c-5.433 0-9.836 4.224-9.836 9.432" mask="url(#khgj57666L)"/>
                    <path fill="#BCB6F9" d="M413.309 493.657c0 5.21 4.402 9.434 9.834 9.434 5.433 0 9.835-4.224 9.835-9.434 0-5.208-4.402-9.432-9.835-9.432-5.432 0-9.834 4.224-9.834 9.432" mask="url(#khgj57666L)"/>
                    <path fill="#3F7BA0" d="M402.191 561.723V280.005c0-14.45-13.071-25.704-28.05-24.15l-166.27 17.256v295.506l166.27 17.256c14.979 1.553 28.05-9.7 28.05-24.15" mask="url(#khgj57666L)"/>
                    <path fill="#49A0DD" d="M384.683 566.002V275.725c0-10.974-9.854-19.562-21.242-18.516l-161.078 14.8c-6.806.624-12.001 6.108-12.001 12.665v272.38c0 6.556 5.195 12.039 12.001 12.666l161.078 14.798c11.388 1.046 21.242-7.542 21.242-18.516" mask="url(#khgj57666L)"/>
                    <path fill="#171754" d="M319.416 296.653c0 3.539 2.244 6.407 5.01 6.407 2.767 0 5.011-2.868 5.011-6.407 0-3.538-2.244-6.408-5.01-6.408-2.767 0-5.01 2.87-5.01 6.408" mask="url(#khgj57666L)"/>
                    <path fill="#BCB6F9" d="M317.628 296.653c0 3.539 2.244 6.407 5.01 6.407 2.767 0 5.011-2.868 5.011-6.407 0-3.538-2.244-6.408-5.01-6.408-2.767 0-5.01 2.87-5.01 6.408" mask="url(#khgj57666L)"/>
                    <path fill="#171754" d="M319.416 314.205c0 3.538 2.244 6.407 5.01 6.407 2.767 0 5.011-2.869 5.011-6.407 0-3.54-2.244-6.407-5.01-6.407-2.767 0-5.01 2.868-5.01 6.407" mask="url(#khgj57666L)"/>
                    <path fill="#BCB6F9" d="M317.628 314.205c0 3.538 2.244 6.407 5.01 6.407 2.767 0 5.011-2.869 5.011-6.407 0-3.54-2.244-6.407-5.01-6.407-2.767 0-5.01 2.868-5.01 6.407" mask="url(#khgj57666L)"/>
                    <path fill="#171754" d="M319.416 332.1c0 3.54 2.244 6.409 5.01 6.409 2.767 0 5.011-2.87 5.011-6.408 0-3.54-2.244-6.407-5.01-6.407-2.767 0-5.01 2.868-5.01 6.407" mask="url(#khgj57666L)"/>
                    <path fill="#BCB6F9" d="M317.628 332.1c0 3.54 2.244 6.409 5.01 6.409 2.767 0 5.011-2.87 5.011-6.408 0-3.54-2.244-6.407-5.01-6.407-2.767 0-5.01 2.868-5.01 6.407" mask="url(#khgj57666L)"/>
                    <path fill="#171754" d="M335.452 331.068c0 3.539 2.242 6.408 5.01 6.408 2.767 0 5.01-2.87 5.01-6.408 0-3.538-2.243-6.406-5.01-6.406-2.768 0-5.01 2.868-5.01 6.406" mask="url(#khgj57666L)"/>
                    <path fill="#BCB6F9" d="M333.664 331.068c0 3.539 2.242 6.408 5.01 6.408 2.767 0 5.01-2.87 5.01-6.408 0-3.538-2.243-6.406-5.01-6.406-2.768 0-5.01 2.868-5.01 6.406" mask="url(#khgj57666L)"/>
                    <path fill="#171754" d="M351.488 330.036c0 3.539 2.242 6.407 5.009 6.407 2.768 0 5.01-2.868 5.01-6.407s-2.242-6.408-5.01-6.408c-2.767 0-5.009 2.87-5.009 6.408" mask="url(#khgj57666L)"/>
                    <path fill="#BCB6F9" d="M349.7 330.036c0 3.539 2.242 6.407 5.009 6.407 2.768 0 5.01-2.868 5.01-6.407s-2.242-6.408-5.01-6.408c-2.767 0-5.009 2.87-5.009 6.408" mask="url(#khgj57666L)"/>
                    <path fill="#171754" d="M335.452 313.516c0 3.54 2.242 6.407 5.01 6.407 2.767 0 5.01-2.868 5.01-6.407 0-3.538-2.243-6.406-5.01-6.406-2.768 0-5.01 2.868-5.01 6.406" mask="url(#khgj57666L)"/>
                    <path fill="#BCB6F9" d="M333.664 313.516c0 3.54 2.242 6.407 5.01 6.407 2.767 0 5.01-2.868 5.01-6.407 0-3.538-2.243-6.406-5.01-6.406-2.768 0-5.01 2.868-5.01 6.406" mask="url(#khgj57666L)"/>
                    <path fill="#171754" d="M351.488 311.796c0 3.539 2.242 6.407 5.009 6.407 2.768 0 5.01-2.868 5.01-6.407s-2.242-6.408-5.01-6.408c-2.767 0-5.009 2.87-5.009 6.408" mask="url(#khgj57666L)"/>
                    <path fill="#BCB6F9" d="M349.7 311.796c0 3.539 2.242 6.407 5.009 6.407 2.768 0 5.01-2.868 5.01-6.407s-2.242-6.408-5.01-6.408c-2.767 0-5.009 2.87-5.009 6.408" mask="url(#khgj57666L)"/>
                    <path fill="#171754" d="M335.452 294.932c0 3.539 2.242 6.407 5.01 6.407 2.767 0 5.01-2.868 5.01-6.407 0-3.538-2.243-6.406-5.01-6.406-2.768 0-5.01 2.868-5.01 6.406" mask="url(#khgj57666L)"/>
                    <path fill="#BCB6F9" d="M333.664 294.932c0 3.539 2.242 6.407 5.01 6.407 2.767 0 5.01-2.868 5.01-6.407 0-3.538-2.243-6.406-5.01-6.406-2.768 0-5.01 2.868-5.01 6.406" mask="url(#khgj57666L)"/>
                    <path fill="#171754" d="M351.488 293.211c0 3.539 2.242 6.407 5.009 6.407 2.768 0 5.01-2.868 5.01-6.407 0-3.538-2.242-6.406-5.01-6.406-2.767 0-5.009 2.868-5.009 6.406" mask="url(#khgj57666L)"/>
                    <path fill="#BCB6F9" d="M349.7 293.211c0 3.539 2.242 6.407 5.009 6.407 2.768 0 5.01-2.868 5.01-6.407 0-3.538-2.242-6.406-5.01-6.406-2.767 0-5.009 2.868-5.009 6.406" mask="url(#khgj57666L)"/>
                    <path fill="#171754" d="M266.52 447.934c0 14.37 9.11 26.021 20.348 26.021 11.239 0 20.348-11.65 20.348-26.02 0-14.372-9.11-26.023-20.348-26.023s-20.347 11.65-20.347 26.022" mask="url(#khgj57666L)"/>
                    <path fill="#171754" d="M286.868 376.792c-30.674 0-55.63 31.915-55.63 71.142s24.956 71.141 55.63 71.141c30.675 0 55.63-31.914 55.63-71.141 0-39.227-24.955-71.142-55.63-71.142m0 151.563c-34.676 0-62.886-36.077-62.886-80.421 0-44.344 28.21-80.422 62.886-80.422s62.887 36.078 62.887 80.422c0 44.344-28.211 80.421-62.887 80.421" mask="url(#khgj57666L)"/>
                    <path fill="#171754" d="M283.24 523.715L290.497 523.715 290.497 447.935 283.24 447.935z" mask="url(#khgj57666L)"/>
                </g>
                <path fill="url(#goawzcr7zM)" d="M279 524L287 524 287 448 279 448z" transform="translate(-84 -998) translate(84 998)"/>
                <g>
                    <path fill="#171754" d="M47.725 60L42.548 53.455 84.822 0 90 6.547z" transform="translate(-84 -998) translate(84 998) translate(241 392)"/>
                    <path fill="#BCB6F9" d="M44.064 60L38.888 53.455 81.162 0 86.34 6.547z" transform="translate(-84 -998) translate(84 998) translate(241 392)"/>
                    <path fill="#171754" d="M42.275 60L47.452 53.455 5.178 0 0 6.547z" transform="translate(-84 -998) translate(84 998) translate(241 392)"/>
                </g>
                <g transform="translate(-84 -998) translate(84 998) translate(238 392)">
                    <mask id="a6lnkpjepP" fill="#fff">
                        <use xlink:href="#5e5a52ju4N"/>
                    </mask>
                    <path fill="url(#wyp46bfrsO)" d="M0 6.547L41.873 60 47 53.453 5.127 0z" mask="url(#a6lnkpjepP)"/>
                </g>
                <path fill="#FFBB96" d="M356.546 453.511l-.009-.008c-.027-.005-.055-.008-.083-.014l.092.022z" transform="translate(-84 -998) translate(84 998)"/>
                <g transform="translate(-84 -998) translate(84 998) translate(221 368)">
                    <mask id="suaxq0sqwS" fill="#fff">
                        <use xlink:href="#pbt5mvvm1Q"/>
                    </mask>
                    <path fill="url(#hv1e1tgcwR)" d="M0 80.001C0 124.113 28.485 160 63.5 160c35.014 0 63.5-35.887 63.5-79.999C127 35.888 98.514 0 63.5 0 28.484 0 0 35.888 0 80.001m7.326 0c0-39.022 25.2-70.768 56.173-70.768 30.975 0 56.173 31.746 56.173 70.768 0 39.022-25.198 70.769-56.173 70.769-30.973 0-56.173-31.747-56.173-70.769" mask="url(#suaxq0sqwS)"/>
                </g>
                <g transform="translate(-84 -998) translate(84 998)">
                    <path fill="#BCB6F9" d="M262.892 447.934c0 14.37 9.11 26.021 20.348 26.021s20.348-11.65 20.348-26.02c0-14.372-9.11-26.023-20.348-26.023s-20.348 11.65-20.348 26.022"/>
                    <path fill="#FFF" d="M268.245 447.934c0 10.592 6.713 19.176 14.995 19.176s14.996-8.584 14.996-19.176c0-10.592-6.714-19.177-14.996-19.177s-14.995 8.585-14.995 19.177"/>
                    <path fill="#171754" d="M278.678 444.397c0-3.221 2.043-5.834 4.561-5.834 2.52 0 4.562 2.613 4.562 5.834 0 2.464-1.194 4.565-2.884 5.422v11.432h-3.354v-11.432c-1.689-.857-2.885-2.958-2.885-5.422"/>
                    <path fill="#9087F4" d="M190.182 360.316h-1.206c-2.664 0-4.824-2.072-4.824-4.625v-24.87c0-2.554 2.16-4.626 4.824-4.626h1.206c2.664 0 4.824 2.072 4.824 4.627v24.869c0 2.553-2.16 4.625-4.824 4.625"/>
                    <mask id="bonfhx1ziU" fill="#fff">
                        <use xlink:href="#il09js2j1T"/>
                    </mask>
                    <path fill="#BCB6F9" d="M182.646 356.558L196.513 356.558 196.513 329.954 182.646 329.954z" mask="url(#bonfhx1ziU)"/>
                    <path fill="#9087F4" d="M182.646 345.857L196.513 345.857 196.513 340.656 182.646 340.656zM190.182 510.707h-1.206c-2.664 0-4.824-2.071-4.824-4.626v-24.868c0-2.555 2.16-4.627 4.824-4.627h1.206c2.664 0 4.824 2.072 4.824 4.627v24.868c0 2.555-2.16 4.626-4.824 4.626" mask="url(#bonfhx1ziU)"/>
                    <path fill="#BCB6F9" d="M182.646 506.949L196.513 506.949 196.513 480.345 182.646 480.345z" mask="url(#bonfhx1ziU)"/>
                    <path fill="#9087F4" d="M182.646 496.249L196.513 496.249 196.513 491.046 182.646 491.046z" mask="url(#bonfhx1ziU)"/>
                    <path fill="#3F7BA0" d="M162.039 643.984h364.027c7.298 0 13.214-5.674 13.214-12.674v-24.088H148.825v24.088c0 7 5.916 12.674 13.214 12.674" mask="url(#bonfhx1ziU)"/>
                    <path fill="#9087F4" d="M148.825 617.398L539.279 617.398 539.279 607.222 148.825 607.222z" mask="url(#bonfhx1ziU)"/>
                    <path fill="#6C2196" d="M513.76 653.441L627.749 653.441 627.749 599.156 513.76 599.156z" mask="url(#bonfhx1ziU)"/>
                    <path fill="#9F5AC4" d="M526.035 653.441L640.023 653.441 640.023 599.156 526.035 599.156z" mask="url(#bonfhx1ziU)"/>
                    <path fill="#CD9BE8" d="M634.642 613.08v26.341c-4.703.176-8.47 3.892-8.47 8.444v.093h-86.285v-.093c0-4.552-3.767-8.268-8.47-8.444v-26.34c4.703-.175 8.47-3.892 8.47-8.444h86.285c0 4.552 3.767 8.269 8.47 8.443" mask="url(#bonfhx1ziU)"/>
                    <path fill="#8648A8" d="M543.523 626.3c0 2.133 1.803 3.86 4.026 3.86s4.026-1.727 4.026-3.86c0-2.135-1.803-3.862-4.026-3.862s-4.026 1.727-4.026 3.861M614.482 626.3c0 2.133 1.803 3.86 4.026 3.86s4.026-1.727 4.026-3.86c0-2.135-1.803-3.862-4.026-3.862s-4.026 1.727-4.026 3.861" mask="url(#bonfhx1ziU)"/>
                    <path fill="#FFF" d="M566.955 626.298c0 8.515 7.196 15.417 16.074 15.417 8.878 0 16.076-6.902 16.076-15.417s-7.198-15.418-16.076-15.418-16.074 6.903-16.074 15.418" mask="url(#bonfhx1ziU)"/>
                    <path fill="#9F5AC4" d="M583.695 634.408h-4.468c-.47 0-.852-.367-.852-.816 0-.451.382-.817.852-.817h4.468c1.26 0 2.285-.983 2.285-2.192v-1.275c0-1.21-1.025-2.193-2.285-2.193h-1.33c-2.199 0-3.99-1.718-3.99-3.826v-1.277c0-2.108 1.791-3.826 3.99-3.826h4.467c.47 0 .851.366.851.817 0 .451-.382.816-.85.816h-4.469c-1.26 0-2.286.985-2.286 2.193v1.277c0 1.209 1.025 2.193 2.286 2.193h1.331c2.198 0 3.988 1.716 3.988 3.826v1.275c0 2.108-1.79 3.825-3.988 3.825" mask="url(#bonfhx1ziU)"/>
                    <path fill="#9F5AC4" d="M583.185 636.559c-.47 0-.853-.366-.853-.816v-2.03c0-.449.382-.815.853-.815.468 0 .85.366.85.816v2.029c0 .45-.382.816-.85.816M583.185 619.659c-.47 0-.853-.367-.853-.818v-1.987c0-.452.382-.817.853-.817.468 0 .85.365.85.817v1.987c0 .451-.382.818-.85.818" mask="url(#bonfhx1ziU)"/>
                    <path fill="#E5E5EC" d="M272.18 141.473L270.62 140.439 295.455 106.002 297.013 107.037zM342.43 141.473L317.597 107.037 319.156 106.002 343.99 140.439zM295.967 141.133L294.107 140.78 301.289 106.055 303.149 106.409zM318.044 141.133L310.862 106.409 312.723 106.055 319.905 140.78z" mask="url(#bonfhx1ziU)"/>
                    <path fill="#FFA15E" d="M254.843 42.333c0 6.486 1.805 12.628 5.033 18.123v.001c.053.095.109.188.164.28.092.153.184.305.278.457.188.306.378.605.575.905.098.15.197.297.296.447.1.15.203.297.305.444.101.148.205.296.308.44.105.149.209.294.319.44l.322.433.003.002c.11.149.222.298.338.448.145.189.292.376.442.56.167.212.336.42.51.625h-.178l.911.964 27.63 29.224 3.558 3.763h23.12l3.56-3.767 27.626-29.217.912-.967h-.177c.161-.193.321-.39.477-.586.144-.178.284-.354.422-.533l.185-.238c.003-.004.007-.007.009-.013.254-.333.502-.667.743-1.005l.27-.377.384-.559c.097-.14.191-.283.284-.425.223-.34.44-.68.655-1.026.09-.145.178-.29.265-.438.057-.093.111-.186.166-.28 3.225-5.493 5.029-11.637 5.029-18.125 0-2.316-.23-4.586-.673-6.8-.097-.485-.204-.967-.322-1.446-.053-.221-.11-.444-.169-.665-2.15-8.116-7.179-15.365-14.176-21.024C334.77 4.738 321.677 0 307.216 0c-25.174 0-46.198 14.354-51.226 33.492-.053.196-.103.396-.152.595-.097.393-.185.788-.267 1.184-.48 2.297-.728 4.655-.728 7.062" mask="url(#bonfhx1ziU)"/>
                    <path fill="#FFF" d="M275.603 42.333c0 6.486 1.088 12.628 3.037 18.123v.001c.032.095.066.188.1.28.054.153.11.305.167.457.113.306.228.605.347.905.059.15.119.297.18.447.06.15.121.297.183.444.062.148.123.296.186.44.062.149.127.294.193.44l.194.433.001.002c.066.149.134.298.205.448.088.189.176.376.266.56.1.212.204.42.308.625h-.107l.55.964 16.678 29.224 2.148 3.763h13.954l2.15-3.767 16.675-29.217.55-.967h-.106c.097-.193.194-.39.288-.586.088-.178.172-.354.255-.533l.11-.238c.003-.004.005-.007.006-.013.155-.333.303-.667.45-1.005l.162-.377c.079-.186.157-.371.232-.559.057-.14.114-.283.173-.425.132-.34.265-.68.394-1.026l.16-.438.1-.28c1.947-5.493 3.036-11.637 3.036-18.125 0-2.316-.139-4.586-.406-6.8-.059-.485-.123-.967-.195-1.446-.031-.221-.067-.444-.102-.665-1.297-8.116-4.333-15.365-8.556-21.024C323.848 4.738 315.944 0 307.217 0c-15.198 0-27.888 14.354-30.922 33.492-.033.196-.062.396-.091.595-.06.393-.112.788-.162 1.184-.29 2.297-.44 4.655-.44 7.062" mask="url(#bonfhx1ziU)"/>
                    <path fill="#FFA15E" d="M297.053 42.333c0 6.486.35 12.628.977 18.123v.001c.009.095.02.188.03.28l.055.457.112.905.057.447.059.444.06.44.062.44.062.433.001.002.065.448.086.56c.033.212.065.42.099.625h-.034l.176.964 5.362 29.224.69 3.763h4.486l.692-3.767 5.36-29.217.178-.967h-.035c.032-.193.063-.39.093-.586l.082-.533.035-.238c.002-.004.002-.007.002-.013.05-.333.098-.667.145-1.005.018-.125.034-.252.053-.377l.073-.559c.02-.14.037-.283.056-.425l.127-1.026c.017-.145.035-.29.051-.438l.032-.28c.626-5.493.976-11.637.976-18.125 0-2.316-.044-4.586-.13-6.8-.02-.485-.04-.967-.063-1.446l-.032-.665c-.417-8.116-1.394-15.365-2.752-21.024C312.563 4.738 310.023 0 307.216 0c-4.885 0-8.966 14.354-9.941 33.492l-.03.595c-.017.393-.035.788-.051 1.184-.093 2.297-.141 4.655-.141 7.062" mask="url(#bonfhx1ziU)"/>
                    <path fill="#171754" d="M318.238 107.678h-22.044c-.338 0-.613-.264-.613-.588v-6.612c0-.326.275-.588.613-.588h22.044c.338 0 .613.262.613.588v6.612c0 .324-.275.588-.613.588" mask="url(#bonfhx1ziU)"/>
                    <path fill="#9F5AC4" d="M362.874 148.167L259.337 133.141 251.558 182.449 355.095 197.473z" mask="url(#bonfhx1ziU)"/>
                    <path fill="#CD9BE8" d="M355.244 133.347L251.638 147.928 259.188 197.267 362.792 182.687z" mask="url(#bonfhx1ziU)"/>
                    <path fill="#9F5AC4" d="M254.858 190.241L359.574 190.241 359.574 140.373 254.858 140.373z" mask="url(#bonfhx1ziU)"/>
                    <path fill="#CD9BE8" d="M354.63 153.165v24.197c-4.32.162-7.78 3.575-7.78 7.756v.086h-79.267v-.086c0-4.181-3.46-7.594-7.78-7.756v-24.197c4.32-.161 7.78-3.576 7.78-7.757h79.267c0 4.181 3.46 7.596 7.78 7.757" mask="url(#bonfhx1ziU)"/>
                    <path fill="#9F5AC4" d="M270.924 165.307c0 1.96 1.656 3.549 3.698 3.549 2.043 0 3.699-1.59 3.699-3.549 0-1.959-1.656-3.547-3.699-3.547-2.042 0-3.698 1.588-3.698 3.547M336.11 165.307c0 1.96 1.656 3.549 3.7 3.549 2.041 0 3.697-1.59 3.697-3.549 0-1.959-1.656-3.547-3.697-3.547-2.044 0-3.7 1.588-3.7 3.547" mask="url(#bonfhx1ziU)"/>
                    <path fill="#FFF" d="M292.45 165.306c0 7.823 6.612 14.163 14.767 14.163s14.767-6.34 14.767-14.163c0-7.822-6.612-14.163-14.767-14.163s-14.767 6.341-14.767 14.163" mask="url(#bonfhx1ziU)"/>
                    <path fill="#CD9BE8" d="M307.867 164.022h-1.301c-.954 0-1.73-.744-1.73-1.659v-1.249c0-.914.776-1.66 1.73-1.66h4.37c.74 0 1.34-.573 1.34-1.284 0-.708-.6-1.283-1.34-1.283h-2.23v-.82c0-.71-.598-1.284-1.338-1.284-.74 0-1.337.575-1.337 1.283v.856c-2.18.255-3.873 2.035-3.873 4.192v1.249c0 2.33 1.977 4.226 4.408 4.226h1.301c.954 0 1.731.746 1.731 1.66v1.25c0 .914-.777 1.658-1.73 1.658h-4.372c-.739 0-1.338.576-1.338 1.285s.6 1.284 1.338 1.284h2.535v.82c0 .709.598 1.283 1.337 1.283.74 0 1.338-.574 1.338-1.283v-.899c2.031-.378 3.57-2.093 3.57-4.149v-1.248c0-2.331-1.977-4.228-4.409-4.228" mask="url(#bonfhx1ziU)"/>
                    <path fill="#786CF2" d="M540.254 247.179c0-7-5.915-12.674-13.213-12.674h-57.868c-5.952 9.99-9.355 21.558-9.355 33.89 0 37.784 31.935 68.416 71.332 68.416 3.084 0 6.123-.196 9.104-.563v-89.069z" mask="url(#bonfhx1ziU)"/>
                </g>
                <g transform="translate(-84 -998) translate(84 998) translate(469 187)">
                    <mask id="yory3tku1W" fill="#fff">
                        <use xlink:href="#208pkg4gjV"/>
                    </mask>
                    <g mask="url(#yory3tku1W)">
                        <use fill="#D8D8D8" xlink:href="#o2jjbcvihX"/>
                        <use fill="url(#cxhyfrg5sY)" xlink:href="#o2jjbcvihX"/>
                    </g>
                </g>
                <g>
                    <g fill="#FFF">
                        <path d="M19.011 7.308c-6.29 0-11.405 4.916-11.405 10.96 0 6.043 5.115 10.96 11.405 10.96 6.29 0 11.405-4.917 11.405-10.96 0-6.044-5.115-10.96-11.405-10.96m0 29.226C8.527 36.534 0 28.339 0 18.268 0 8.196 8.527 0 19.011 0c10.483 0 19.011 8.196 19.011 18.268 0 10.071-8.528 18.266-19.011 18.266M65.789 46.713c-6.29 0-11.406 4.917-11.406 10.959 0 6.045 5.116 10.961 11.406 10.961 6.29 0 11.405-4.916 11.405-10.961 0-6.042-5.116-10.959-11.405-10.959m0 29.226c-10.483 0-19.011-8.195-19.011-18.267s8.528-18.266 19.01-18.266c10.485 0 19.012 8.194 19.012 18.266 0 10.072-8.527 18.267-19.011 18.267M16.047 68.799L10.671 63.633 74.361 2.436 79.738 7.602z" transform="translate(-84 -998) translate(84 998) translate(34 218) translate(463.632)"/>
                    </g>
                    <path stroke="#867DE3" stroke-linecap="round" stroke-width="3" d="M0 434.295L621 434.295" transform="translate(-84 -998) translate(84 998) translate(34 218)"/>
                </g>
            </g>
        </g>
    </g>
</svg>
